<?xml version="1.0" standalone="no"?>
<!DOCTYPE svg PUBLIC "-//W3C//DTD SVG 20010904//EN"
 "http://www.w3.org/TR/2001/REC-SVG-20010904/DTD/svg10.dtd">
<svg version="1.0" xmlns="http://www.w3.org/2000/svg"
 width="1257.000000pt" height="657.000000pt" viewBox="0 0 1257.000000 657.000000"
 preserveAspectRatio="xMidYMid meet">

<g transform="translate(0.000000,657.000000) scale(0.100000,-0.100000)"
fill="#000000" stroke="none">
<path d="M6517 1484 c-4 -4 -7 -33 -7 -65 l0 -58 -37 -3 -38 -3 -3 -57 -3 -57
38 -3 38 -3 5 -162 c6 -182 12 -201 83 -236 48 -24 146 -34 176 -18 19 10 22
19 19 59 l-3 47 -55 7 c-78 9 -81 17 -78 173 l3 130 55 3 c59 3 70 12 70 55 0
53 -15 67 -75 67 l-54 0 -3 63 -3 62 -60 3 c-34 2 -64 0 -68 -4z"/>
<path d="M11370 1348 c-52 -15 -86 -43 -109 -92 -20 -40 -21 -57 -19 -247 l3
-204 25 0 25 0 5 205 c4 177 8 210 23 234 22 33 72 56 122 56 34 0 36 2 33 28
-3 23 -8 27 -38 29 -19 1 -51 -3 -70 -9z"/>
<path d="M7024 1326 c-57 -26 -110 -84 -125 -136 -6 -20 -9 -110 -7 -210 l3
-175 65 0 65 0 5 170 c3 94 9 178 14 187 13 28 53 48 95 48 67 0 71 5 71 76
l0 64 -67 0 c-50 0 -81 -6 -119 -24z"/>
<path d="M7355 1336 c-72 -32 -94 -89 -95 -251 0 -141 11 -188 53 -232 54 -57
191 -69 251 -22 l25 19 3 -22 c3 -21 9 -23 64 -26 43 -2 64 1 73 11 8 11 11
86 9 273 l-3 259 -175 2 c-128 2 -183 -1 -205 -11z m235 -234 c0 -163 -5 -172
-94 -172 -35 0 -67 5 -74 12 -15 15 -17 241 -2 269 9 16 22 19 90 19 l80 0 0
-128z"/>
<path d="M7837 1343 c-13 -12 -8 -518 5 -531 12 -12 95 -16 122 -6 14 5 16 32
16 195 0 176 1 190 20 209 15 15 33 20 73 20 85 0 81 8 87 -222 l5 -203 58 -3
c91 -5 89 -11 85 227 -3 185 -5 210 -24 245 -30 58 -71 76 -172 76 -75 0 -85
-2 -107 -25 l-25 -24 0 24 c0 24 -2 25 -68 25 -38 0 -72 -3 -75 -7z"/>
<path d="M8442 1333 c-42 -21 -63 -61 -64 -124 0 -80 21 -101 192 -192 64 -34
71 -41 68 -65 l-3 -27 -125 -5 -125 -5 0 -55 0 -55 150 0 c127 0 156 3 188 19
48 24 67 60 67 129 0 69 -19 94 -113 148 -122 70 -147 88 -147 108 0 25 26 31
138 31 l92 0 0 55 0 55 -142 0 c-112 0 -150 -4 -176 -17z"/>
<path d="M8892 998 l3 -353 25 0 c25 0 25 1 28 103 l3 102 30 -22 c27 -20 43
-23 122 -23 102 0 137 12 171 58 19 26 21 44 24 202 4 196 -4 231 -60 265 -47
28 -208 29 -255 1 -31 -19 -31 -19 -36 0 -3 13 -14 19 -31 19 l-26 0 2 -352z
m301 291 c41 -18 47 -49 47 -220 0 -156 -1 -160 -25 -184 -22 -23 -32 -25
-115 -25 -88 0 -93 1 -121 29 l-29 29 0 162 0 162 29 29 c28 27 34 29 110 29
44 0 91 -5 104 -11z"/>
<path d="M9505 1340 c-27 -11 -61 -49 -74 -83 -6 -16 -11 -96 -11 -180 1 -242
24 -272 212 -272 116 0 137 8 182 69 19 25 21 41 21 205 0 196 -4 213 -68 251
-27 17 -50 20 -137 19 -58 0 -114 -4 -125 -9z m240 -64 c32 -32 37 -68 33
-230 -3 -137 -3 -138 -31 -162 -25 -22 -37 -24 -121 -24 -79 0 -95 3 -114 20
-31 29 -34 49 -30 220 l3 152 28 24 c25 22 37 24 118 24 81 0 92 -2 114 -24z"/>
<path d="M9910 1338 c0 -21 152 -513 162 -525 6 -7 21 -13 34 -13 12 0 26 6
31 13 4 6 35 113 70 237 34 124 62 222 62 219 4 -32 123 -445 132 -455 16 -20
57 -17 68 4 5 9 41 125 80 257 39 132 74 248 77 258 5 16 1 18 -27 15 l-32 -3
-67 -235 c-38 -129 -70 -228 -74 -220 -5 14 -88 314 -116 418 -10 41 -13 43
-43 40 l-31 -3 -65 -233 c-36 -128 -68 -227 -72 -220 -4 7 -32 103 -63 213
-69 246 -69 245 -101 245 -14 0 -25 -5 -25 -12z"/>
<path d="M10772 1333 c-61 -30 -72 -70 -72 -255 0 -185 9 -217 70 -253 30 -17
56 -20 182 -23 129 -3 149 -2 154 12 15 38 -12 46 -151 46 -74 0 -141 3 -150
6 -27 11 -45 60 -45 123 l0 61 178 2 177 3 0 95 c-1 109 -16 149 -68 180 -43
27 -224 28 -275 3z m247 -50 c24 -20 40 -76 41 -140 l0 -43 -150 0 -150 0 0
71 c0 65 2 73 29 100 28 28 33 29 119 29 71 0 94 -4 111 -17z"/>
</g>
</svg>
