<?xml version="1.0" standalone="no"?>
<!DOCTYPE svg PUBLIC "-//W3C//DTD SVG 20010904//EN"
 "http://www.w3.org/TR/2001/REC-SVG-20010904/DTD/svg10.dtd">
<svg version="1.0" xmlns="http://www.w3.org/2000/svg"
 width="489.000000pt" height="230.000000pt" viewBox="0 0 489.000000 230.000000"
 preserveAspectRatio="xMidYMid meet">

<g transform="translate(0.000000,230.000000) scale(0.100000,-0.100000)"
fill="#000000" stroke="none">
<path d="M4735 2291 c-62 -26 -82 -116 -36 -165 44 -47 131 -43 166 8 17 24
20 89 5 117 -21 39 -88 59 -135 40z m99 -32 c21 -16 26 -29 26 -64 0 -35 -5
-48 -26 -64 -89 -70 -195 52 -112 129 28 26 78 26 112 -1z"/>
<path d="M4740 2200 c0 -38 4 -50 15 -50 8 0 15 8 15 18 1 16 1 16 14 0 21
-29 31 -21 33 25 1 46 -8 57 -49 57 -27 0 -28 -2 -28 -50z m45 21 c3 -5 1 -12
-5 -16 -5 -3 -10 1 -10 9 0 18 6 21 15 7z"/>
<path d="M565 2200 c-269 -9 -414 -23 -503 -51 -30 -10 -32 -14 -32 -54 l0
-44 32 10 c62 17 253 39 433 49 419 23 914 3 1094 -44 l51 -13 0 44 c0 53 -10
58 -145 79 -79 12 -580 36 -675 32 -19 -1 -134 -4 -255 -8z"/>
<path d="M1850 1664 l0 -536 283 4 c256 4 287 6 339 25 110 41 159 93 185 198
20 82 8 176 -28 230 -27 38 -91 84 -131 92 -29 6 -39 23 -15 23 27 0 97 60
119 102 18 34 22 59 22 124 0 71 -4 87 -31 135 -35 63 -105 111 -185 128 -27
6 -162 11 -303 11 l-255 0 0 -536z m491 350 c62 -37 76 -152 25 -207 -32 -34
-84 -47 -188 -47 l-88 0 0 141 0 142 108 -5 c85 -3 117 -9 143 -24z m16 -427
c45 -24 63 -56 69 -119 6 -62 -14 -109 -59 -142 -24 -18 -46 -22 -153 -25
l-124 -3 0 157 0 157 118 -4 c84 -3 126 -9 149 -21z"/>
<path d="M2740 1665 l0 -535 120 0 120 0 2 208 3 207 178 3 177 2 0 90 0 90
-180 0 -180 0 0 140 0 140 225 0 225 0 0 95 0 95 -345 0 -345 0 0 -535z"/>
<path d="M3500 1665 l0 -535 110 0 110 0 1 373 0 372 147 -370 148 -370 39 -3
40 -3 147 373 148 373 0 -372 0 -373 120 0 120 0 0 535 0 536 -157 -3 -156 -3
-120 -322 c-66 -177 -123 -321 -127 -318 -3 2 -60 148 -126 324 l-119 321
-162 0 -163 0 0 -535z"/>
<path d="M342 2010 c-123 -10 -235 -27 -280 -41 -30 -10 -32 -14 -32 -55 0
-40 2 -45 18 -39 49 15 181 35 312 46 188 17 833 17 995 0 116 -12 231 -32
268 -46 15 -6 17 -1 17 39 0 56 -6 59 -150 83 -75 12 -195 16 -570 18 -261 2
-521 -1 -578 -5z"/>
<path d="M400 1883 c-97 -6 -261 -25 -287 -33 l-28 -7 25 -7 c99 -24 694 -50
955 -41 201 6 454 28 510 43 26 8 20 10 -50 20 -144 21 -405 32 -745 30 -184
-1 -355 -3 -380 -5z"/>
<path d="M11 1715 c-1 -104 16 -140 117 -255 115 -130 135 -184 113 -303 -15
-85 -36 -120 -118 -205 -52 -54 -79 -93 -93 -130 -21 -56 -27 -156 -10 -182 7
-11 10 -1 10 36 0 79 36 140 117 199 159 116 229 206 240 310 11 106 -56 225
-176 312 -89 64 -149 121 -167 155 -8 16 -19 54 -23 86 l-9 57 -1 -80z"/>
<path d="M1260 1760 c0 -34 -29 -81 -91 -147 -77 -83 -119 -171 -125 -266 l-6
-72 30 60 c16 33 53 87 81 119 60 71 111 185 119 268 2 32 2 58 -2 58 -3 0 -6
-9 -6 -20z"/>
<path d="M1652 1755 c-7 -96 -41 -144 -172 -241 -82 -60 -138 -121 -176 -194
-30 -56 -26 -171 8 -235 29 -54 99 -126 193 -197 105 -80 135 -127 135 -215 0
-35 3 -44 10 -33 17 26 11 126 -10 182 -14 38 -42 76 -99 135 -86 90 -107 133
-118 239 -9 97 12 145 117 263 104 118 122 158 117 256 -1 39 -4 57 -5 40z"/>
<path d="M620 1138 c-1 -42 -39 -110 -93 -162 -72 -71 -117 -164 -123 -258
l-6 -73 25 52 c14 28 50 82 81 119 68 82 117 194 124 282 2 34 2 62 -2 62 -3
0 -6 -10 -6 -22z"/>
<path d="M2030 1014 c-19 -8 -45 -25 -58 -36 -27 -26 -52 -105 -52 -165 0 -43
0 -43 -35 -43 l-35 0 0 -55 0 -55 35 0 35 0 0 -225 0 -225 80 0 80 0 0 225 0
225 60 0 60 0 0 55 0 55 -60 0 -60 0 0 50 c0 66 25 94 81 88 l39 -4 0 63 0 63
-67 0 c-38 -1 -84 -8 -103 -16z"/>
<path d="M2292 1010 c-12 -5 -29 -25 -39 -44 -14 -30 -14 -39 -3 -67 25 -59
105 -73 148 -26 67 72 -12 174 -106 137z"/>
<path d="M3304 1010 c-71 -29 -71 -126 -1 -155 89 -37 167 59 105 129 -25 29
-72 40 -104 26z"/>
<path d="M2540 830 l0 -60 -40 0 -40 0 0 -55 0 -55 39 0 40 0 3 -184 c3 -168
5 -187 24 -213 30 -42 85 -65 153 -65 96 0 101 4 101 74 l0 61 -38 -7 c-26 -4
-45 -1 -60 10 -21 14 -22 22 -22 170 l0 154 55 0 55 0 0 55 0 55 -55 0 -55 0
0 60 0 60 -80 0 -80 0 0 -60z"/>
<path d="M2940 830 l0 -60 -40 0 -40 0 0 -55 0 -55 39 0 40 0 3 -184 c3 -168
5 -187 24 -213 30 -42 85 -65 153 -65 96 0 101 4 101 74 l0 61 -38 -7 c-26 -4
-45 -1 -60 10 -21 14 -22 22 -22 170 l0 154 55 0 55 0 0 55 0 55 -55 0 -55 0
0 60 0 60 -80 0 -80 0 0 -60z"/>
<path d="M3795 784 c-5 -1 -27 -5 -48 -9 -23 -4 -53 -20 -78 -42 l-39 -35 0
36 0 36 -80 0 -80 0 0 -280 0 -280 80 0 80 0 0 180 c0 117 4 188 12 205 26 57
129 75 173 30 25 -24 25 -25 25 -220 l0 -195 80 0 80 0 0 210 c0 168 -3 218
-15 248 -19 43 -50 79 -85 97 -26 13 -88 24 -105 19z"/>
<path d="M4250 779 c-163 -32 -247 -238 -167 -412 65 -142 240 -180 359 -78
l41 35 -5 -59 c-10 -108 -45 -145 -137 -145 -63 0 -98 16 -117 52 -14 27 -17
28 -89 28 -69 0 -75 -2 -75 -20 0 -37 39 -99 81 -130 53 -38 128 -54 227 -48
148 9 240 77 262 197 5 29 10 170 10 312 l0 259 -80 0 -80 0 0 -36 0 -36 -39
35 c-24 22 -55 38 -78 42 -21 4 -45 8 -53 10 -8 1 -35 -1 -60 -6z m175 -141
c81 -64 70 -230 -19 -272 -47 -22 -87 -20 -127 7 -44 30 -62 69 -62 137 0 99
44 149 134 150 33 0 54 -6 74 -22z"/>
<path d="M2250 490 l0 -280 80 0 80 0 0 280 0 280 -80 0 -80 0 0 -280z"/>
<path d="M3260 490 l0 -280 80 0 80 0 0 280 0 280 -80 0 -80 0 0 -280z"/>
<path d="M470 619 c-168 -7 -295 -20 -370 -38 -19 -5 -28 -9 -20 -10 8 -1 85
-8 170 -17 207 -20 860 -30 1045 -15 194 15 313 33 288 42 -44 16 -220 30
-487 39 -309 10 -368 10 -626 -1z"/>
<path d="M32 503 c3 -46 4 -48 44 -59 84 -24 249 -36 599 -41 453 -7 773 10
918 48 36 9 37 11 37 54 l0 44 -32 -10 c-73 -21 -267 -40 -525 -51 -401 -17
-904 9 -1016 51 l-28 11 3 -47z"/>
<path d="M32 318 c3 -40 5 -43 46 -55 89 -25 238 -35 608 -40 470 -7 795 11
912 48 29 10 32 14 32 51 0 40 0 40 -32 34 -316 -66 -1195 -72 -1491 -10 -38
8 -71 14 -73 14 -3 0 -4 -19 -2 -42z"/>
</g>
</svg>
