<?xml version="1.0" standalone="no"?>
<!DOCTYPE svg PUBLIC "-//W3C//DTD SVG 20010904//EN"
 "http://www.w3.org/TR/2001/REC-SVG-20010904/DTD/svg10.dtd">
<svg version="1.0" xmlns="http://www.w3.org/2000/svg"
 width="3768.000000pt" height="953.000000pt" viewBox="0 0 3768.000000 953.000000"
 preserveAspectRatio="xMidYMid meet">

<g transform="translate(0.000000,953.000000) scale(0.100000,-0.100000)"
fill="#000000" stroke="none">
<path d="M3555 9520 c-1109 -55 -2062 -445 -2705 -1106 -475 -488 -748 -1076
-832 -1789 -18 -161 -16 -587 5 -755 120 -955 625 -1771 1432 -2316 532 -359
1126 -570 1865 -661 122 -15 363 -17 2443 -20 l2307 -4 0 846 0 845 -2137 0
c-1316 0 -2192 4 -2278 10 -721 51 -1282 379 -1554 908 -223 435 -223 969 -1
1413 112 221 333 468 550 612 271 179 595 292 939 327 68 6 844 10 2292 10
l2189 0 0 845 0 845 -2182 -2 c-1201 0 -2251 -4 -2333 -8z"/>
<path d="M12263 9519 c-1072 -51 -2027 -434 -2662 -1068 -581 -581 -881 -1324
-881 -2181 0 -754 227 -1417 686 -2010 106 -138 381 -415 517 -524 507 -403
1098 -668 1769 -791 399 -73 522 -77 1918 -73 1296 5 1281 4 1635 63 1850 310
3083 1704 3032 3425 -7 222 -16 315 -53 520 -134 744 -544 1402 -1161 1864
-631 471 -1419 730 -2365 776 -234 11 -2193 11 -2435 -1z m2547 -1702 c244
-41 453 -107 641 -203 476 -243 781 -636 881 -1136 32 -161 32 -424 0 -585
-63 -314 -192 -554 -421 -784 -297 -297 -679 -468 -1181 -531 -81 -10 -367
-13 -1245 -13 -1040 0 -1151 2 -1264 18 -257 37 -474 101 -668 196 -476 235
-776 613 -875 1104 -33 161 -32 454 1 607 67 315 205 572 426 795 310 313 712
493 1225 548 19 2 562 3 1205 3 1066 -2 1179 -3 1275 -19z"/>
<path d="M19160 6200 l0 -3331 3693 1 3692 1 3 -1430 2 -1431 960 0 960 0 0
1435 0 1434 1963 4 c1756 3 1976 5 2097 20 388 48 713 128 988 243 817 342
1289 957 1404 1829 10 78 13 356 13 1245 0 1139 0 1146 -22 1285 -82 509 -278
910 -603 1235 -472 473 -1158 734 -2049 780 -132 6 -1178 10 -2957 10 l-2754
0 -2 -2482 -3 -2483 -2727 -3 -2728 -2 0 2485 0 2485 -965 0 -965 0 0 -3330z
m13183 1612 c204 -47 357 -120 474 -226 72 -66 152 -180 183 -263 51 -135 51
-141 48 -1154 l-4 -944 -22 -75 c-68 -220 -227 -391 -455 -487 -106 -45 -254
-80 -392 -93 -70 -6 -756 -10 -1907 -10 l-1798 0 0 1640 0 1640 1888 -3 1887
-3 98 -22z"/>
<path d="M35740 6200 l0 -3330 970 0 970 0 0 3330 0 3330 -970 0 -970 0 0
-3330z"/>
</g>
</svg>
