<?xml version="1.0" standalone="no"?>
<!DOCTYPE svg PUBLIC "-//W3C//DTD SVG 20010904//EN"
 "http://www.w3.org/TR/2001/REC-SVG-20010904/DTD/svg10.dtd">
<svg version="1.0" xmlns="http://www.w3.org/2000/svg"
 width="7844.000000pt" height="7985.000000pt" viewBox="0 0 7844.000000 7985.000000"
 preserveAspectRatio="xMidYMid meet">

<g transform="translate(0.000000,7985.000000) scale(0.100000,-0.100000)"
fill="#000000" stroke="none">
<path d="M37535 79829 c-4613 -158 -9082 -1392 -13071 -3609 -109 -60 -201
-110 -204 -110 -4 0 -60 32 -126 72 -354 213 -755 347 -1214 405 -167 21 -665
24 -840 5 -474 -51 -914 -148 -1430 -314 -277 -89 -1020 -499 -1575 -869 -810
-540 -1481 -1122 -2081 -1804 -1232 -1401 -1988 -3078 -2183 -4840 -36 -327
-42 -436 -48 -860 l-6 -420 -97 -140 c-1192 -1721 -2192 -3559 -2984 -5487
-1173 -2852 -1882 -5892 -2095 -8973 -54 -776 -65 -1137 -66 -2040 0 -792 7
-1052 40 -1650 275 -4877 1751 -9541 4331 -13682 473 -758 946 -1444 1512
-2193 94 -124 169 -226 168 -228 -2 -1 -71 22 -155 53 -1374 495 -3358 802
-5796 895 -704 27 -1234 30 -5317 30 l-4288 0 0 -16315 0 -16315 4025 0 4025
0 0 4555 0 4555 723 0 c955 0 1507 15 2227 61 1339 84 2510 263 3503 535 71
20 135 38 143 41 9 3 14 -2 14 -15 0 -15 -1396 -9403 -1437 -9664 l-6 -38
2934 0 2934 0 308 2753 c170 1513 311 2760 314 2770 4 16 80 17 1408 17 l1403
0 6 -42 c7 -51 616 -5476 616 -5489 0 -5 994 -9 2514 -9 1666 0 2517 -3 2521
-10 4 -6 78 -10 189 -10 l182 0 103 -677 c57 -373 104 -682 106 -688 2 -5 4
299 4 678 l1 687 2385 0 2385 0 0 137 c0 76 -65 3580 -145 7788 -80 4207 -144
7689 -143 7737 3 84 54 -137 1783 -7785 l1780 -7872 3763 -3 c2570 -1 3762 -5
3762 -12 0 -16 7744 -7 7980 8 745 49 1124 90 1617 172 910 153 1688 411 2252
745 52 30 95 54 96 53 2 -2 -104 -725 -139 -950 l-6 -38 4034 0 4033 0 6 28
c2 15 202 1785 443 3934 l439 3908 2102 0 c1157 0 2103 -1 2104 -2 0 -2 199
-1771 443 -3933 l442 -3930 4122 -3 c3734 -2 4122 -1 4122 14 0 8 -1120 7345
-2490 16303 -1369 8958 -2490 16293 -2490 16299 0 9 -1394 12 -5630 12 -3618
0 -5630 3 -5630 10 0 5 42 69 93 142 1062 1509 2032 3230 2785 4940 1841 4179
2658 8697 2407 13313 -298 5477 -2144 10734 -5348 15223 -104 146 -109 156
-113 210 -20 296 -29 394 -50 570 -258 2177 -1361 4188 -3144 5737 -686 596
-1491 1131 -2370 1574 -149 76 -233 111 -355 149 -523 165 -947 257 -1405 304
-188 19 -642 16 -820 -6 -281 -34 -557 -101 -783 -190 l-115 -46 -124 71
c-942 542 -2104 1113 -3168 1556 -3256 1357 -6651 2091 -10230 2213 -337 11
-1572 11 -1915 -1z m2045 -589 c1508 -62 2861 -215 4265 -480 2650 -501 5270
-1403 7660 -2638 404 -208 874 -463 875 -473 0 -3 -42 -39 -92 -79 -227 -183
-589 -586 -1076 -1198 -1631 -2050 -2705 -4214 -3173 -6390 -51 -239 -125
-658 -154 -882 -10 -69 -18 -126 -20 -128 -2 -2 -110 31 -241 72 -2350 739
-4799 1199 -7324 1376 -772 54 -1369 73 -2225 73 -1305 0 -2361 -59 -3620
-203 -1835 -211 -3747 -618 -5392 -1148 l-121 -39 -12 101 c-242 2074 -1027
4124 -2351 6141 -342 520 -792 1130 -1208 1635 -174 212 -478 565 -560 653
-38 40 -60 71 -55 76 30 30 708 386 1139 600 3152 1564 6557 2525 10055 2835
642 57 1231 90 1965 110 230 6 1422 -4 1665 -14z m-640 -11340 c993 -30 1892
-95 2835 -206 4358 -512 8456 -1906 11870 -4037 305 -191 411 -262 535 -361
1633 -1306 2953 -2705 3992 -4231 564 -829 1071 -1750 1460 -2655 709 -1648
1141 -3427 1297 -5350 45 -548 60 -885 68 -1505 19 -1553 -122 -3196 -432
-5040 -143 -851 -251 -1389 -401 -1993 -829 -3347 -2453 -5991 -4825 -7858
-615 -485 -1322 -940 -2029 -1307 -357 -185 -676 -298 -1145 -402 -404 -90
-809 -149 -1685 -245 -1232 -136 -1644 -199 -2183 -336 -356 -91 -655 -199
-958 -345 l-166 -81 -169 -346 c-1207 -2470 -2375 -4017 -3516 -4658 -1049
-589 -2073 -363 -3121 691 -403 405 -758 866 -1212 1575 -76 118 -143 221
-149 228 -10 10 -53 -55 -201 -300 -836 -1380 -1606 -2216 -2400 -2603 -358
-175 -624 -240 -985 -239 -221 0 -366 20 -570 79 -815 235 -1668 965 -2531
2166 -534 744 -1030 1590 -1591 2712 -183 365 -211 417 -231 417 -13 0 -120
-9 -238 -20 -651 -59 -1317 -64 -1924 -14 -3189 263 -5938 1954 -8290 5099
-621 831 -1214 1763 -1777 2795 -287 525 -326 608 -447 942 -1197 3314 -1791
6377 -1791 9243 1 2808 569 5366 1706 7670 1111 2254 2766 4227 4904 5847
3295 2496 7659 4081 12510 4542 644 62 1362 106 2010 125 385 12 1413 12 1780
1z m23297 -1407 c2797 -4235 4392 -9078 4658 -14138 47 -905 49 -2037 5 -2935
-194 -3932 -1195 -7760 -2946 -11263 -1593 -3186 -3771 -6047 -6424 -8437
-2217 -1998 -4737 -3637 -7450 -4847 -313 -139 -488 -214 -1319 -559 l-705
-292 1965 -5 c1892 -4 2055 -7 2519 -37 1908 -125 3233 -555 3963 -1285 582
-581 975 -1563 1176 -2935 68 -462 103 -857 143 -1575 8 -150 13 -1515 17
-4747 l6 -4538 1830 12288 1831 12287 5719 0 5719 0 2402 -15715 c1322 -8643
2403 -15721 2404 -15727 0 -10 -710 -13 -3519 -13 l-3518 0 -6 28 c-2 15 -202
1785 -443 3934 l-439 3908 -2627 0 c-1465 0 -2628 -4 -2628 -9 0 -4 -198
-1770 -440 -3924 -242 -2154 -440 -3921 -440 -3926 0 -8 -1032 -11 -3435 -11
l-3436 0 6 33 c16 93 275 1850 273 1852 -2 2 -160 -150 -351 -336 -191 -186
-396 -377 -455 -425 -683 -550 -1763 -902 -3215 -1049 -240 -24 -512 -44 -887
-67 -138 -8 -1219 -12 -3727 -15 l-3533 -4 0 10566 c0 8522 -2 10565 -13
10565 -7 0 -156 -31 -332 -69 -176 -38 -348 -75 -382 -82 l-63 -13 0 -10468 0
-10468 -3428 0 -3429 0 -9 43 c-6 23 -1070 4727 -2365 10454 -1294 5726 -2355
10411 -2356 10410 -2 -2 383 -20326 391 -20659 l6 -248 -2090 0 -2090 0 0
11048 0 11047 -253 94 c-1228 459 -2564 1075 -3717 1714 -2112 1170 -4005
2551 -5782 4219 -101 94 -467 455 -814 802 l-630 631 -395 465 c-748 880
-1005 1199 -1461 1810 -3336 4474 -5262 9774 -5578 15345 -71 1252 -57 2601
40 3845 334 4282 1612 8376 3770 12080 335 574 880 1437 901 1424 5 -3 9 -16
9 -29 0 -13 16 -111 35 -217 402 -2194 1643 -4204 3572 -5783 88 -73 204 -166
257 -206 85 -65 94 -75 83 -91 -6 -9 -75 -103 -151 -208 -1870 -2562 -2938
-5576 -3165 -8930 -67 -978 -60 -2046 20 -3075 193 -2505 796 -5131 1818
-7915 77 -209 157 -371 424 -860 836 -1531 1714 -2818 2686 -3938 470 -541
1040 -1111 1549 -1547 1219 -1043 2488 -1773 3877 -2228 803 -264 1572 -414
2510 -493 279 -23 1078 -30 1410 -13 143 8 289 14 323 14 l64 0 165 -320 c740
-1437 1398 -2467 2092 -3274 861 -1003 1704 -1562 2585 -1712 155 -27 515 -37
679 -20 904 97 1771 655 2627 1691 152 184 406 527 559 753 73 110 136 195
140 190 4 -4 29 -39 56 -78 395 -567 915 -1137 1360 -1489 510 -403 1019 -639
1560 -722 168 -26 561 -26 725 -1 542 85 1051 315 1570 711 401 305 865 778
1266 1287 616 782 1224 1781 1857 3048 l202 404 80 37 c297 137 687 255 1135
344 411 82 740 127 1690 231 1068 118 1495 185 1992 311 503 128 848 271 1408
584 1546 864 2850 1965 3931 3317 1513 1893 2551 4242 3098 7013 319 1615 521
3178 601 4640 44 811 44 1822 0 2595 -177 3082 -1006 5799 -2513 8225 -213
343 -516 789 -745 1099 l-114 154 34 26 c91 71 403 336 544 462 339 305 788
772 1090 1134 1246 1494 1990 3251 2150 5078 3 42 8 77 9 77 2 0 106 -156 232
-347z m-53072 -33021 c760 -29 1145 -48 1620 -82 2486 -179 4319 -605 5482
-1273 71 -41 337 -211 591 -377 l462 -302 309 -542 c170 -297 345 -613 388
-701 443 -890 722 -2047 818 -3400 33 -467 37 -622 42 -1662 l5 -1073 1130 0
1130 0 -6 -37 c-5 -32 -1536 -13228 -1536 -13239 0 -2 684 -4 1520 -4 l1520 0
0 22 c0 17 -1404 13017 -1426 13206 l-6 52 1946 0 c1070 0 1946 -2 1946 -4 0
-2 754 -4935 1675 -10962 922 -6028 1679 -10978 1682 -11002 l6 -42 -2394 2
-2394 3 -312 2770 c-171 1524 -312 2771 -312 2773 -1 1 -869 2 -1931 2 -1866
0 -1930 -1 -1930 -18 0 -19 -605 -5414 -615 -5490 l-6 -42 -2330 0 c-1856 0
-2329 3 -2329 13 0 6 334 2252 741 4990 408 2737 740 4980 737 4982 -3 3 -131
-38 -284 -90 -1066 -366 -2105 -575 -3474 -699 -912 -83 -1484 -104 -3022
-113 l-1138 -6 0 -4549 0 -4548 -3440 0 -3440 0 0 15731 0 15730 4138 -4
c2789 -3 4235 -8 4437 -15z m50411 -8980 c-629 -4220 -1146 -7675 -1148 -7678
-3 -2 -8 291 -11 653 -6 741 -19 1035 -68 1593 -121 1382 -406 2476 -852 3275
-77 138 -244 388 -336 503 -166 208 -379 415 -596 579 -1042 786 -2783 1182
-5202 1183 -244 0 -443 3 -443 8 0 4 94 51 208 106 459 218 1211 614 1737 914
2886 1643 5543 3839 7693 6359 85 100 157 181 158 180 2 -1 -512 -3455 -1140
-7675z m-40340 4678 c2540 -2269 5527 -4104 8702 -5346 l252 -99 -1 -7970 c0
-4529 -4 -7961 -9 -7950 -5 11 -585 3796 -1290 8410 -705 4615 -1284 8398
-1286 8407 -5 17 -162 18 -3072 20 l-3067 3 -6 845 c-6 847 -15 1075 -54 1530
-61 694 -158 1300 -301 1875 -41 165 -122 452 -140 500 -10 26 2 16 272 -225z
m2339 -13944 c228 -2110 415 -3841 415 -3846 0 -6 -320 -10 -865 -10 -716 0
-865 2 -865 13 0 15 876 7575 885 7645 4 24 8 42 11 40 2 -2 190 -1731 419
-3842z"/>
<path d="M30790 52594 c-19 -2 -87 -9 -150 -15 -608 -57 -1301 -271 -1960
-605 -253 -128 -305 -160 -512 -322 -1303 -1017 -2336 -2111 -3130 -3317
-1281 -1943 -1746 -3953 -1308 -5651 177 -687 502 -1315 969 -1872 733 -875
1847 -1560 3230 -1987 342 -105 605 -138 928 -116 583 40 1156 229 1780 587
1276 731 2564 2080 3555 3724 230 382 512 916 693 1315 900 1984 1139 3878
669 5307 -349 1062 -1052 1848 -2109 2359 -195 94 -621 273 -805 338 -323 113
-609 182 -975 232 -122 17 -214 21 -495 24 -190 2 -361 1 -380 -1z m1181
-2155 c1056 -83 2007 -682 2548 -1602 428 -730 551 -1627 336 -2452 -192 -737
-636 -1382 -1257 -1827 -446 -318 -963 -517 -1523 -584 -189 -22 -542 -22
-730 0 -620 75 -1174 306 -1660 690 -125 99 -407 380 -507 506 -848 1068 -950
2526 -257 3692 439 739 1165 1280 2004 1492 171 43 308 64 575 89 84 8 347 6
471 -4z"/>
<path d="M31460 49754 c-327 -39 -596 -117 -875 -253 -516 -253 -924 -661
-1175 -1176 -117 -241 -195 -492 -236 -760 -23 -150 -26 -541 -6 -685 82 -581
332 -1089 732 -1490 394 -393 886 -639 1457 -727 78 -12 176 -17 353 -17 277
0 389 12 625 71 1042 260 1815 1152 1926 2220 17 166 7 527 -20 679 -74 432
-245 824 -509 1164 -91 117 -287 316 -407 413 -280 226 -624 400 -963 488
-225 58 -334 71 -612 74 -140 2 -271 1 -290 -1z m1195 -1075 c377 -63 688
-372 760 -754 23 -121 16 -318 -15 -424 -95 -330 -352 -585 -672 -665 -515
-131 -1019 166 -1160 681 -31 115 -31 333 0 457 25 101 91 246 146 321 58 81
165 183 252 240 206 138 437 186 689 144z"/>
<path d="M45965 52594 c-394 -32 -873 -138 -1239 -274 -126 -47 -203 -78 -521
-212 -724 -306 -1327 -761 -1753 -1324 -710 -940 -967 -2229 -746 -3744 212
-1454 871 -3070 1855 -4545 471 -706 965 -1313 1518 -1865 1419 -1416 2882
-2094 4075 -1890 134 23 250 55 521 145 1757 582 3004 1556 3660 2860 463 921
616 1982 449 3120 -229 1561 -1039 3191 -2343 4715 -233 272 -392 443 -740
790 -437 437 -722 695 -1171 1061 -448 364 -579 449 -989 640 -586 272 -1121
430 -1716 505 -125 16 -729 28 -860 18z m10 -2315 c762 -66 1465 -393 2009
-934 509 -505 832 -1154 931 -1870 22 -159 31 -548 16 -713 -91 -998 -613
-1873 -1449 -2429 -395 -263 -864 -441 -1342 -508 -154 -22 -591 -31 -747 -16
-1122 112 -2087 769 -2593 1766 -165 323 -262 632 -322 1015 -30 196 -33 674
-5 870 136 960 646 1774 1437 2295 449 295 959 474 1495 524 132 12 432 12
570 0z"/>
<path d="M45575 49604 c-320 -24 -556 -74 -805 -171 -605 -237 -1087 -680
-1370 -1258 -94 -191 -139 -311 -185 -490 -221 -863 16 -1773 630 -2414 400
-417 921 -684 1497 -766 57 -8 177 -18 268 -21 684 -26 1365 234 1859 711
1037 1001 1053 2649 37 3660 -137 136 -233 214 -392 321 -333 222 -742 373
-1124 413 -113 12 -344 20 -415 15z m960 -930 c322 -61 609 -321 709 -640 155
-500 -122 -1031 -621 -1188 -490 -153 -1012 115 -1179 606 -35 105 -47 203
-41 345 10 245 98 445 271 619 230 230 531 320 861 258z"/>
<path d="M38595 36314 c-599 -38 -1085 -128 -1570 -289 -1195 -398 -2070
-1159 -2364 -2055 -39 -120 -76 -279 -93 -395 -19 -130 -16 -474 5 -604 84
-524 335 -991 761 -1416 405 -404 943 -733 1566 -958 461 -166 940 -269 1490
-319 190 -17 807 -17 1000 0 948 85 1785 356 2464 799 880 574 1375 1370 1376
2211 1 978 -671 1892 -1808 2461 -595 298 -1240 476 -1982 546 -156 15 -711
27 -845 19z"/>
<path d="M66222 23674 c-574 -4950 -1043 -9005 -1043 -9011 1 -10 412 -13
2022 -13 l2021 0 -6 38 c-3 20 -440 4056 -971 8967 -531 4912 -968 8950 -972
8974 -6 32 -273 -2242 -1051 -8955z m1687 -2356 c362 -3340 656 -6076 654
-6080 -5 -10 -2721 -10 -2726 0 -2 4 310 2714 694 6022 384 3308 701 6043 705
6078 3 35 9 61 11 58 3 -2 301 -2738 662 -6078z"/>
<path d="M36013 22510 c2 -8 968 -4243 2148 -9410 l2144 -9394 2 134 c3 154
-313 18610 -318 18614 -2 2 -150 -4 -329 -12 -425 -19 -1840 -22 -2230 -4
-378 17 -758 39 -1118 65 -267 20 -303 20 -299 7z m1022 -640 c724 -34 1462
-45 1995 -32 212 6 386 10 386 9 4 -5 215 -12509 212 -12518 -3 -8 -2838
12394 -2864 12529 -6 31 -5 32 22 27 16 -2 128 -9 249 -15z"/>
<path d="M49610 13000 l0 -7551 1038 4 c1005 3 1041 4 1169 25 760 123 1049
442 1160 1282 17 128 18 438 21 6135 2 4272 0 6048 -8 6165 -65 976 -363 1341
-1200 1466 -102 16 -234 18 -1147 21 l-1033 4 0 -7551z m1930 6960 c336 -24
560 -89 663 -193 56 -56 103 -158 138 -293 40 -159 58 -303 70 -563 15 -343 7
-11903 -9 -12031 -43 -339 -104 -535 -196 -637 -68 -76 -236 -145 -426 -177
-182 -30 -339 -36 -957 -36 l-623 0 0 6970 0 6970 598 0 c328 0 662 -5 742
-10z"/>
<path d="M7477 28414 c-4 -4 -7 -2702 -7 -5996 l0 -5989 1213 4 c1297 4 1273
3 1605 57 437 71 802 222 1033 427 342 303 528 772 606 1525 17 163 18 391 18
3968 0 3056 -3 3822 -13 3935 -41 434 -109 746 -223 1021 -234 565 -660 860
-1429 988 -335 56 -389 58 -1640 63 -635 3 -1158 1 -1163 -3z m2501 -608 c407
-48 678 -128 875 -260 146 -97 244 -227 328 -436 105 -262 162 -604 179 -1080
12 -345 13 -6858 0 -7205 -23 -641 -117 -1055 -301 -1327 -179 -263 -531 -405
-1164 -469 -67 -7 -447 -13 -972 -16 l-863 -5 0 5412 0 5411 888 -4 c753 -3
909 -6 1030 -21z"/>
</g>
</svg>
