<svg version="1.1" id="Layer_1" xmlns="http://www.w3.org/2000/svg" xmlns:xlink="http://www.w3.org/1999/xlink" x="0px" y="0px"
	 width="100%" viewBox="0 0 5000 5090" enable-background="new 0 0 5000 5090" xml:space="preserve">
<path fill="#000000" opacity="1.000000" stroke="none" 
	d="
M2615.127930,5.436696 
	C3411.809570,4.000000 4207.619141,4.000000 5004.000000,4.000000 
	C5004.000000,1644.083618 5004.000000,3284.167236 5004.000000,4926.125488 
	C4989.388672,4932.399902 4989.453125,4920.482422 4987.365723,4912.260254 
	C4979.492676,4881.247559 4977.448242,4849.249023 4972.290039,4817.762207 
	C4954.234375,4707.537109 4937.883789,4597.032715 4921.169922,4486.601562 
	C4899.480957,4343.297852 4877.557617,4200.027344 4855.770996,4056.738281 
	C4837.681152,3937.761475 4819.213379,3818.836914 4801.183105,3699.852783 
	C4780.561035,3563.770264 4759.429199,3427.764404 4739.063965,3291.641357 
	C4722.141602,3178.533203 4704.363770,3065.549072 4687.330078,2952.454102 
	C4685.333496,2939.198486 4679.209961,2931.871338 4665.062500,2932.432373 
	C4657.750977,2932.722656 4650.403320,2932.397217 4643.071777,2932.396973 
	C4433.117188,2932.389404 4223.162598,2932.485352 4013.208252,2932.188965 
	C3999.864014,2932.170166 3982.651855,2937.806396 3974.942871,2922.593018 
	C3967.276611,2907.464844 3982.125000,2896.974854 3989.552490,2885.824219 
	C4072.597900,2761.146973 4140.655273,2628.972412 4192.780273,2488.373047 
	C4231.335449,2384.375488 4258.783203,2277.543213 4278.250977,2168.673584 
	C4289.595215,2105.230957 4296.103027,2041.072388 4300.605957,1976.601440 
	C4305.725098,1903.303711 4305.689941,1829.949707 4302.533691,1756.942261 
	C4297.674805,1644.573975 4280.724121,1533.446533 4254.325684,1423.827393 
	C4220.965820,1285.301880 4172.580078,1152.324341 4108.418945,1025.263306 
	C4069.690674,948.567505 4027.506104,873.539673 3975.850830,804.696045 
	C3956.000000,778.239685 3952.748535,749.114685 3948.554199,718.834595 
	C3935.478027,624.430969 3898.773926,539.813660 3841.258545,464.061462 
	C3774.581055,376.241821 3689.860596,310.194611 3589.726074,265.933533 
	C3532.489746,240.634216 3470.616699,232.134720 3408.376709,250.245544 
	C3388.760010,255.953674 3372.063721,252.528671 3354.925293,242.981171 
	C3174.710205,142.587418 2982.856689,75.136055 2779.647217,39.591980 
	C2731.117432,31.103434 2682.253662,25.700880 2633.378662,20.094845 
	C2624.758057,19.106050 2615.550049,18.618095 2615.127930,5.436696 
z"/>
<path fill="#000000" opacity="1.000000" stroke="none" 
	d="
M5.224549,2921.114990 
	C4.000000,1948.325562 4.000000,976.651062 4.000000,4.000000 
	C772.083313,4.000000 1540.166992,4.000000 2310.125488,4.000000 
	C2315.900146,20.423075 2302.933838,18.988228 2293.982422,19.955690 
	C2229.166748,26.960831 2164.528809,35.033184 2100.608398,48.170010 
	C1954.572632,78.183044 1813.801392,123.800758 1678.893555,187.706360 
	C1644.547607,203.975937 1611.724487,223.031937 1577.343994,239.125107 
	C1563.269531,245.713150 1549.553711,248.005188 1535.131836,240.933334 
	C1459.487671,203.840973 1382.963989,213.572266 1311.478882,247.340408 
	C1172.234131,313.116699 1065.540649,414.554169 1001.730408,556.890686 
	C978.761780,608.124939 964.179749,661.922974 959.591919,718.375061 
	C957.973267,738.292969 956.180725,758.130981 956.208801,778.097839 
	C956.228516,792.113831 950.533203,803.835632 942.912964,815.073730 
	C890.508057,892.358521 843.644775,972.829346 803.156250,1057.023560 
	C732.052795,1204.880005 681.557922,1359.449219 652.283569,1520.837646 
	C635.167480,1615.197876 626.784668,1710.332031 622.950378,1806.305420 
	C620.869385,1858.392578 623.574646,1910.085327 625.492065,1961.680176 
	C628.427307,2040.665405 639.152649,2119.212891 653.984436,2197.097900 
	C688.874573,2380.313721 750.298889,2554.127930 837.280334,2718.952148 
	C879.307373,2798.590820 928.357056,2873.881592 980.819397,2946.999268 
	C987.582642,2956.425293 1000.031921,2966.386719 992.466492,2978.414551 
	C984.359680,2991.303223 970.150208,2982.531494 959.413025,2979.456543 
	C868.753479,2953.494385 776.132751,2941.564941 682.162170,2935.902832 
	C468.501617,2923.029785 254.672699,2930.617188 40.932503,2928.221924 
	C29.260963,2928.091064 16.683867,2931.367432 5.224549,2921.114990 
z"/>
<path fill="#626161" opacity="1.000000" stroke="none" 
	d="
M4.000000,2921.874512 
	C12.536315,2922.218018 21.246984,2921.234131 29.875395,2921.237061 
	C194.517944,2921.297119 359.161011,2921.058350 523.802734,2921.426514 
	C565.751099,2921.520264 607.754883,2922.441650 649.627502,2924.833740 
	C715.430237,2928.592773 781.173279,2933.881348 846.230103,2944.955078 
	C889.575500,2952.333496 932.551575,2961.615479 974.404907,2975.455078 
	C978.809265,2976.911377 983.355347,2977.988281 987.900940,2978.924561 
	C988.732849,2979.095947 989.991211,2977.848145 990.827271,2977.026123 
	C991.158813,2976.700195 991.133789,2975.583740 990.830505,2975.108887 
	C988.693787,2971.763184 986.576660,2968.391113 984.206970,2965.210693 
	C951.136414,2920.829102 919.967407,2875.159668 890.714294,2828.167480 
	C829.247192,2729.426514 777.886475,2625.678223 736.109253,2517.156982 
	C708.068176,2444.316895 684.720154,2369.981445 666.310852,2294.154297 
	C651.536438,2233.299316 639.849243,2171.845459 631.276855,2109.747314 
	C624.805481,2062.868896 620.919922,2015.787598 616.851868,1968.700806 
	C615.820923,1956.768188 615.963928,1944.733643 615.585693,1932.745239 
	C614.703796,1904.796143 612.151978,1876.774292 613.351135,1848.914307 
	C615.154419,1807.023193 614.840332,1765.066895 618.486511,1723.197510 
	C621.201721,1692.019287 623.692139,1660.836792 627.266724,1629.736694 
	C631.754883,1590.688599 637.696594,1551.861084 644.932678,1513.248047 
	C663.867615,1412.207886 690.915649,1313.374268 726.371399,1216.859741 
	C778.329041,1075.425171 846.263916,942.137085 931.427063,817.838623 
	C943.299622,800.510193 948.604187,783.575378 948.748047,762.568481 
	C949.406006,666.505066 975.683472,577.186523 1024.190186,494.472260 
	C1074.701904,408.339050 1143.671631,339.858521 1226.678589,285.048889 
	C1248.386841,270.714966 1271.055542,258.037384 1293.826416,245.480347 
	C1321.072144,230.455505 1350.654053,222.606232 1380.750977,216.816605 
	C1400.305054,213.055054 1420.361572,209.763580 1440.163696,209.921783 
	C1472.234497,210.178009 1503.807007,215.393448 1533.098389,230.080170 
	C1540.184326,233.633102 1546.543457,240.031677 1554.615234,239.991150 
	C1563.417480,239.946960 1570.449829,233.499664 1577.984985,229.404434 
	C1698.462891,163.927841 1824.453979,111.938400 1956.429077,74.616776 
	C2035.343262,52.300388 2115.281982,34.749428 2196.577148,23.531628 
	C2230.865479,18.800245 2265.125488,13.955870 2299.703125,11.814899 
	C2304.326904,11.528588 2309.130371,11.507586 2312.186035,5.632442 
	C2412.083496,4.000000 2512.167236,4.000000 2614.125488,4.000000 
	C2615.623779,5.969818 2615.315186,8.200493 2617.369141,9.209330 
	C2619.691650,10.350091 2622.304932,11.421013 2624.835938,11.533941 
	C2650.152100,12.663496 2675.161865,16.575169 2700.292969,19.432070 
	C2750.646729,25.156378 2800.473389,34.003098 2849.973633,44.616936 
	C2926.250488,60.972256 3001.339111,81.662415 3074.970947,107.579453 
	C3173.258545,142.174896 3268.033691,184.533752 3359.097412,235.185776 
	C3362.009521,236.805618 3364.968018,238.342316 3367.889893,239.945068 
	C3384.432617,249.019699 3384.334473,248.687042 3403.284180,243.245911 
	C3432.287109,234.917953 3461.579346,230.358414 3492.042480,234.595337 
	C3508.519043,236.886978 3525.019287,238.770508 3541.412842,241.809647 
	C3584.862793,249.864716 3622.980713,270.145966 3660.177979,292.627228 
	C3704.826904,319.611816 3746.349365,350.761963 3783.861816,387.069061 
	C3871.001465,471.409546 3929.348877,571.850403 3953.176758,691.423340 
	C3956.820801,709.709717 3960.000977,728.120239 3960.676758,746.798035 
	C3961.221191,761.848511 3965.830322,774.643799 3974.778564,787.283630 
	C4073.563232,926.821960 4151.523926,1077.178955 4208.437500,1238.501953 
	C4242.885254,1336.144897 4268.836914,1435.956909 4286.561523,1537.864746 
	C4294.543457,1583.756470 4300.267578,1630.011475 4304.896484,1676.438721 
	C4314.109863,1768.852661 4314.583984,1861.403564 4310.706055,1953.976685 
	C4308.673828,2002.489258 4303.837402,2050.885254 4297.235352,2099.100098 
	C4288.188477,2165.164062 4276.086426,2230.575684 4260.352051,2295.362549 
	C4243.821289,2363.431152 4223.447754,2430.311279 4199.090820,2495.966553 
	C4174.033691,2563.507324 4145.297363,2629.461670 4112.421387,2693.578857 
	C4075.276611,2766.020996 4033.890137,2835.938232 3987.540771,2902.900146 
	C3983.855225,2908.224609 3976.097168,2913.990234 3978.789307,2919.739990 
	C3982.327637,2927.295898 3991.970459,2923.148438 3998.801270,2923.155029 
	C4218.123535,2923.366699 4437.445801,2923.329346 4656.768066,2923.329346 
	C4659.434570,2923.329346 4662.101074,2923.309082 4664.767578,2923.333008 
	C4694.790039,2923.601807 4690.281738,2920.540039 4695.225586,2949.605469 
	C4700.471680,2980.449219 4704.539551,3011.491455 4709.284180,3042.422607 
	C4716.653320,3090.468994 4724.197754,3138.488525 4731.594727,3186.531006 
	C4738.079590,3228.648682 4744.489258,3270.777832 4750.885742,3312.908936 
	C4760.680176,3377.419678 4770.373535,3441.946045 4780.224121,3506.448242 
	C4788.868652,3563.053467 4797.755371,3619.622314 4806.375488,3676.231201 
	C4813.791992,3724.937012 4820.907227,3773.688721 4828.293457,3822.399414 
	C4836.479492,3876.382812 4844.790527,3930.347900 4853.106934,3984.311768 
	C4861.930664,4041.571045 4870.813477,4098.820801 4879.689941,4156.072266 
	C4885.911621,4196.203125 4892.260742,4236.313965 4898.381836,4276.459961 
	C4906.913086,4332.416504 4915.212402,4388.407227 4923.748535,4444.362793 
	C4929.873047,4484.513672 4936.348633,4524.610840 4942.434570,4564.767578 
	C4949.817871,4613.482910 4956.836914,4662.254395 4964.233887,4710.968262 
	C4971.230957,4757.048340 4978.547363,4803.080078 4985.659668,4849.143066 
	C4989.215820,4872.176758 4992.641113,4895.230469 4996.098145,4918.278809 
	C4996.687988,4922.209473 4996.724609,4926.348145 5002.408691,4928.334473 
	C5004.000000,4952.084473 5004.000000,4976.169434 5004.000000,5002.126953 
	C4997.851562,5011.512207 4989.377441,5012.458496 4980.490234,5012.471680 
	C4821.206055,5012.707031 4661.921875,5012.902832 4502.638672,5012.290039 
	C4480.175293,5012.204102 4474.586426,5006.962402 4471.293945,4984.725098 
	C4461.459961,4918.301758 4455.943359,4851.360840 4447.764648,4784.732910 
	C4439.586914,4718.109863 4432.909668,4651.308105 4424.911133,4584.656738 
	C4422.854004,4567.513672 4420.438965,4550.347168 4419.452148,4533.087891 
	C4418.727051,4520.398438 4413.410645,4513.039551 4400.006836,4512.942383 
	C4328.032715,4512.421387 4256.058105,4512.409668 4184.083984,4512.954590 
	C4172.096680,4513.045410 4166.170410,4518.959473 4164.723145,4531.069824 
	C4156.206055,4602.357422 4149.062012,4673.798340 4140.444336,4745.075195 
	C4130.872559,4824.247559 4124.393555,4903.782715 4112.958496,4982.732910 
	C4109.220703,5008.541504 4104.560547,5012.278809 4077.500000,5012.443359 
	C4000.858154,5012.908691 3924.213867,5012.601074 3847.570557,5012.614746 
	C3770.927246,5012.628418 3694.283447,5012.836914 3617.640869,5012.501953 
	C3585.426758,5012.360840 3580.478760,5007.689453 3580.885254,4975.527832 
	C3581.042969,4963.042969 3575.374756,4963.317871 3567.516602,4966.886719 
	C3517.832520,4989.449219 3465.197266,5000.518555 3411.401855,5006.354492 
	C3383.680908,5009.361328 3355.897461,5012.617676 3327.906250,5012.619141 
	C3016.000977,5012.635254 2704.095459,5012.633789 2392.190186,5012.607422 
	C2384.859131,5012.606445 2377.531250,5012.509766 2370.206787,5012.098145 
	C2351.322998,5011.037598 2343.962891,4998.147461 2340.384521,4982.210938 
	C2322.012939,4900.396484 2303.152344,4818.692871 2284.681396,4736.900879 
	C2261.958008,4636.277832 2239.076416,4535.689453 2216.369873,4435.062988 
	C2191.319092,4324.047852 2166.086914,4213.073242 2141.426758,4101.971680 
	C2137.567627,4084.585205 2136.634277,4066.549072 2133.899170,4054.671631 
	C2141.206055,4081.189453 2140.769043,4114.008789 2140.671143,4146.844727 
	C2140.339355,4258.065918 2144.219971,4369.247559 2145.907959,4480.432617 
	C2146.928223,4547.624023 2144.804688,4615.040039 2149.319092,4682.053711 
	C2153.896973,4750.007324 2149.970947,4817.919922 2153.257324,4885.714355 
	C2154.739258,4916.286133 2157.011230,4946.793457 2156.484863,4977.416016 
	C2155.989502,5006.226562 2150.053955,5012.291016 2120.664795,5012.458496 
	C2043.356445,5012.898438 1966.045776,5012.540527 1888.735962,5012.640137 
	C1852.920532,5012.686523 1853.138306,5012.842285 1852.456543,5047.976562 
	C1852.204468,5060.966309 1855.864136,5074.848633 1844.995361,5087.525391 
	C1830.891846,5087.683594 1830.432739,5077.124512 1828.269287,5068.562500 
	C1824.528198,5053.756836 1824.162720,5038.373047 1821.094727,5021.944336 
	C1819.455200,5016.538086 1819.462036,5011.560059 1811.828369,5011.797363 
	C1807.248901,5011.790039 1804.137085,5011.425293 1799.257446,5010.964355 
	C1781.312866,5006.635254 1764.866943,5005.921875 1748.203613,5005.869141 
	C1661.342529,5005.594727 1574.475464,5007.105469 1485.799561,5004.576172 
	C1465.161377,4991.152832 1470.547607,4969.998535 1468.441895,4952.656250 
	C1460.109375,4884.028809 1452.135376,4815.340332 1444.674927,4746.608887 
	C1442.455322,4726.160156 1440.000000,4705.641602 1438.941284,4685.005371 
	C1437.750488,4661.789062 1432.400391,4656.953613 1409.713379,4656.757812 
	C1372.385986,4656.435547 1335.052612,4656.841309 1297.726074,4656.595215 
	C1281.612305,4656.489258 1273.958496,4662.302734 1272.030762,4679.431641 
	C1261.322021,4774.577148 1250.108398,4869.666504 1240.246948,4964.906738 
	C1239.485229,4972.263672 1237.180298,4979.214844 1236.129639,4986.468750 
	C1234.101807,5000.469727 1225.499390,5007.313965 1211.678467,5008.125000 
	C1198.357788,5008.906250 1185.021851,5008.622070 1171.692139,5008.620605 
	C1075.034424,5008.608398 978.376282,5008.827637 881.719116,5008.512695 
	C847.668640,5008.401855 841.631287,5000.881348 846.583496,4967.810059 
	C863.820740,4852.699219 880.973328,4737.573730 898.194519,4622.461914 
	C908.230042,4555.380859 918.722412,4488.344727 927.728149,4421.105957 
	C930.627991,4399.455078 927.853699,4396.963867 907.172302,4401.486328 
	C828.936707,4418.596680 749.855225,4427.041504 669.744934,4429.489746 
	C633.863464,4430.586426 597.961548,4432.311035 562.026917,4432.680664 
	C535.054382,4432.958496 532.726379,4435.163086 532.700623,4462.894043 
	C532.556396,4618.213379 532.656372,4773.532227 532.622498,4928.851562 
	C532.618530,4946.849121 533.084229,4964.858398 532.322937,4982.841309 
	C531.404175,5004.545898 524.684509,5011.408691 503.175842,5012.287598 
	C481.861542,5013.159180 460.518158,5012.615723 439.187866,5012.618652 
	C305.866791,5012.636719 172.545547,5012.733398 39.224880,5012.476074 
	C28.213219,5012.455078 16.315039,5015.205566 5.366184,5005.260254 
	C4.000000,4310.583008 4.000000,3617.166260 4.000000,2921.874512 
z"/>
<path fill="#010101" opacity="1.000000" stroke="none" 
	d="
M1839.318115,5088.751465 
	C1844.537964,5082.319336 1843.526611,5076.101074 1843.594971,5070.217285 
	C1843.773315,5054.888672 1843.631592,5039.556152 1843.707886,5024.225586 
	C1843.730957,5019.570801 1843.880981,5014.901855 1844.283569,5010.266602 
	C1844.608276,5006.527832 1847.017456,5004.130371 1850.682129,5003.846191 
	C1856.648682,5003.384277 1862.652466,5003.245605 1868.640625,5003.243164 
	C1953.293213,5003.207520 2037.945801,5003.218750 2122.598389,5003.220215 
	C2148.804932,5003.220215 2148.058350,5004.786133 2147.469482,4978.377441 
	C2147.454590,4977.711426 2147.370605,4977.047363 2147.361572,4976.381348 
	C2146.405273,4905.109863 2143.595459,4833.879883 2143.459717,4762.581543 
	C2143.361816,4711.310059 2141.162109,4660.044434 2140.089111,4608.771973 
	C2139.531738,4582.122559 2140.043213,4555.437500 2138.930420,4528.815918 
	C2135.506348,4446.913086 2137.555420,4364.906738 2134.584473,4283.041016 
	C2132.167236,4216.428223 2132.402588,4149.824707 2130.967041,4083.226807 
	C2130.623291,4067.265137 2129.583984,4051.318848 2128.917725,4035.363281 
	C2128.786133,4032.212158 2128.898682,4029.050781 2128.898682,4025.513916 
	C2134.919434,4027.208008 2134.869629,4031.533936 2135.710205,4035.267822 
	C2154.586182,4119.088379 2173.398926,4202.922852 2192.322998,4286.732422 
	C2213.740479,4381.585449 2235.284424,4476.409668 2256.720215,4571.258301 
	C2283.441162,4689.491699 2310.092041,4807.741211 2336.811035,4925.975098 
	C2341.802734,4948.064453 2346.822021,4970.149414 2352.127197,4992.164551 
	C2354.442871,5001.773438 2355.872559,5002.669434 2365.926270,5003.104004 
	C2371.914795,5003.362793 2377.921875,5003.215332 2383.920654,5003.215820 
	C2527.896729,5003.220215 2671.882568,5002.182617 2815.846436,5003.508789 
	C2962.477783,5004.858887 3109.100586,5003.759766 3255.725586,5004.374023 
	C3281.716309,5004.482422 3307.753662,5004.960938 3333.692139,5003.689453 
	C3399.664551,5000.458008 3465.184082,4993.849609 3528.303955,4972.487793 
	C3546.641602,4966.282227 3564.557617,4959.174805 3581.574463,4949.871582 
	C3584.942871,4948.029297 3588.172607,4945.166992 3593.798096,4946.971680 
	C3593.141357,4956.507812 3591.924316,4966.248535 3590.283447,4975.968750 
	C3589.397217,4981.219238 3588.462891,4986.489258 3588.072021,4991.789551 
	C3587.364258,5001.387695 3589.260986,5003.350098 3599.135742,5003.785645 
	C3603.793213,5003.991699 3608.465576,5003.877441 3613.131348,5003.877441 
	C3767.772461,5003.880371 3922.413330,5003.879883 4077.054443,5003.879883 
	C4078.387695,5003.879883 4079.720703,5003.870117 4081.053955,5003.881348 
	C4105.991211,5004.088379 4102.305664,5003.404785 4104.627441,4982.489746 
	C4111.236816,4922.939453 4117.727051,4863.376465 4124.525391,4803.848145 
	C4130.491699,4751.607910 4137.010254,4699.429688 4142.911133,4647.182617 
	C4147.767578,4604.179199 4152.067383,4561.113770 4156.649902,4518.079590 
	C4156.930176,4515.442383 4157.369629,4512.799805 4158.012695,4510.229492 
	C4158.890137,4506.722656 4161.208008,4504.312988 4164.817383,4503.862793 
	C4168.769531,4503.370117 4172.786133,4503.229980 4176.774902,4503.228516 
	C4253.428711,4503.193848 4330.083008,4503.202637 4406.736816,4503.203613 
	C4408.069824,4503.203613 4409.404297,4503.185059 4410.736328,4503.230469 
	C4424.346680,4503.695312 4425.862793,4504.926758 4427.226562,4517.616211 
	C4431.778809,4559.983398 4436.070801,4602.378906 4440.815430,4644.724609 
	C4445.262695,4684.415527 4450.274414,4724.043945 4454.819336,4763.724609 
	C4458.152832,4792.825195 4461.047852,4821.975098 4464.290527,4851.086914 
	C4469.595215,4898.720215 4474.988281,4946.343750 4480.433105,4993.961426 
	C4481.309082,5001.622070 4483.058105,5003.285156 4490.340332,5003.668945 
	C4496.324219,5003.983887 4502.333008,5003.873047 4508.331055,5003.874023 
	C4672.304688,5003.892578 4836.277832,5003.901855 5002.125977,5003.956055 
	C5004.000000,5034.650391 5004.000000,5065.300293 5004.000000,5096.000000 
	C3950.583008,5096.000000 2897.166260,5096.000000 1841.874634,5096.000000 
	C1838.472290,5094.293945 1837.940918,5092.319824 1839.318115,5088.751465 
z"/>
<path fill="#010000" opacity="1.000000" stroke="none" 
	d="
M1840.381592,5085.830566 
	C1840.164795,5089.331543 1840.098511,5091.236816 1840.016113,5094.571289 
	C1228.000000,5096.000000 615.999939,5096.000000 4.000000,5096.000000 
	C4.000000,5066.363281 4.000000,5037.056641 4.000000,5005.875000 
	C167.979507,5003.961426 331.959015,5003.926758 495.938538,5003.871582 
	C502.601501,5003.869141 509.271118,5003.825684 515.924988,5003.522461 
	C520.635742,5003.308594 523.155640,5000.366211 523.345459,4995.786133 
	C523.621338,4989.130371 523.672485,4982.461426 523.673096,4975.798340 
	C523.688721,4801.152832 523.682068,4626.507812 523.698792,4451.862305 
	C523.699402,4445.199219 523.756592,4438.530762 524.045349,4431.875488 
	C524.244507,4427.285156 526.789490,4424.438965 531.518982,4424.207031 
	C536.841248,4423.945801 542.176880,4423.916992 547.507385,4423.871094 
	C573.499634,4423.646973 599.512817,4424.043457 625.480530,4423.134766 
	C702.040161,4420.454590 778.532471,4416.534180 854.133606,4403.037109 
	C874.435608,4399.413086 894.516968,4394.541016 914.676941,4390.137695 
	C922.416138,4388.447754 930.092468,4386.468750 937.033447,4384.804688 
	C941.315247,4389.044922 940.879517,4393.104004 940.372559,4397.035645 
	C938.755005,4409.579590 937.094238,4422.120117 935.246521,4434.631836 
	C926.006470,4497.201660 916.793579,4559.775879 907.392456,4622.321777 
	C898.881592,4678.944336 890.017273,4735.513672 881.535278,4792.140625 
	C872.854858,4850.093262 864.430420,4908.083496 855.943726,4966.064941 
	C854.595276,4975.276855 853.269043,4984.504395 852.419861,4993.769531 
	C852.084534,4997.429199 854.619019,5000.052246 858.389526,5000.453125 
	C863.010559,5000.944336 867.681641,5001.158203 872.331177,5001.159668 
	C983.650818,5001.196777 1094.970459,5001.189453 1206.290161,5001.184082 
	C1209.622681,5001.183594 1212.964600,5001.259766 1216.285889,5001.046387 
	C1224.867798,5000.494629 1226.576782,4999.038574 1227.618042,4990.450684 
	C1230.423584,4967.310547 1233.078979,4944.152344 1235.744995,4920.996094 
	C1240.693237,4878.015137 1245.685791,4835.039062 1250.506470,4792.044434 
	C1253.771362,4762.925293 1256.775635,4733.776855 1259.893188,4704.641602 
	C1261.521973,4689.419922 1263.004150,4674.180664 1264.824585,4658.981934 
	C1265.808716,4650.765137 1267.952148,4649.041992 1276.523193,4648.558105 
	C1280.511597,4648.333008 1284.519775,4648.427734 1288.518921,4648.427246 
	C1333.180054,4648.419922 1377.841309,4648.421387 1422.502441,4648.425293 
	C1425.835205,4648.425781 1429.174194,4648.337402 1432.499634,4648.502930 
	C1441.815308,4648.966309 1442.720825,4649.694336 1444.388672,4658.358887 
	C1445.395752,4663.590332 1446.410645,4668.841797 1446.987915,4674.131836 
	C1452.985596,4729.083496 1458.835571,4784.051270 1464.846069,4839.001465 
	C1470.275757,4888.642090 1475.835815,4938.268066 1481.407959,4987.893066 
	C1481.778076,4991.188965 1482.737427,4994.418945 1483.785400,4999.319824 
	C1535.927002,5003.348145 1587.733887,5001.556152 1639.526367,5001.943848 
	C1693.345581,5002.347168 1747.169067,5001.730469 1802.781494,5002.997070 
	C1807.441162,5003.673828 1810.309082,5003.563477 1814.588745,5003.736328 
	C1818.571777,5007.517090 1823.109497,5007.794434 1827.160278,5011.151367 
	C1829.411743,5018.449707 1831.035522,5024.858398 1832.116455,5031.356934 
	C1835.044678,5048.962891 1837.742920,5066.606445 1840.381592,5085.830566 
z"/>
<path fill="#F2D033" opacity="1.000000" stroke="none" 
	d="
M3734.282227,4270.338867 
	C3742.595215,4215.245605 3750.573730,4161.875977 3758.482666,4108.495605 
	C3767.074951,4050.503174 3775.556396,3992.494141 3784.170410,3934.504883 
	C3792.686768,3877.174805 3801.324707,3819.862549 3809.878906,3762.538086 
	C3817.253418,3713.120605 3824.586914,3663.696533 3831.934570,3614.274902 
	C3839.183838,3565.511963 3846.419189,3516.746826 3853.677002,3467.985352 
	C3862.503906,3408.681885 3871.353516,3349.381592 3880.182861,3290.078613 
	C3888.620117,3233.408936 3897.041748,3176.736816 3905.474854,3120.066406 
	C3911.750488,3077.895264 3918.020752,3035.723389 3924.324707,2993.556641 
	C3925.408203,2986.308350 3926.521973,2979.060547 3927.845215,2971.853271 
	C3929.625732,2962.155273 3930.632812,2961.329102 3941.127686,2960.885742 
	C3946.452393,2960.660889 3951.792480,2960.788574 3957.125732,2960.788574 
	C4181.790527,2960.785400 4406.455078,2960.785156 4631.120117,2960.788818 
	C4636.453125,2960.789062 4641.794922,2960.651123 4647.117188,2960.905273 
	C4656.619141,2961.359131 4658.177246,2962.701660 4659.734375,2972.760742 
	C4666.563965,3016.870605 4673.266602,3061.000000 4680.004883,3105.124023 
	C4688.654297,3161.760498 4697.293945,3218.398438 4705.939941,3275.035400 
	C4714.686035,3332.330811 4723.428711,3389.626465 4732.185059,3446.920410 
	C4740.740234,3502.897949 4749.321777,3558.871338 4757.869141,3614.850098 
	C4766.718262,3672.804199 4775.540527,3730.761963 4784.375488,3788.718018 
	C4792.708496,3843.383545 4801.016602,3898.052734 4809.384277,3952.712646 
	C4818.255859,4010.662354 4827.175781,4068.604492 4836.089844,4126.547363 
	C4844.902344,4183.833008 4853.790039,4241.106445 4862.539551,4298.401367 
	C4871.188965,4355.038574 4879.685547,4411.698730 4888.287109,4468.342773 
	C4896.589355,4523.012695 4904.907227,4577.679199 4913.278320,4632.338379 
	C4922.153809,4690.286621 4931.134766,4748.218262 4940.001465,4806.167480 
	C4947.256836,4853.582031 4954.412109,4901.012695 4961.609375,4948.436035 
	C4962.108887,4951.725586 4962.814941,4955.003906 4963.021973,4958.312500 
	C4963.266602,4962.225586 4960.982910,4964.657715 4957.242188,4965.019043 
	C4951.953613,4965.529785 4946.615723,4965.690430 4941.297852,4965.707031 
	C4918.631348,4965.775879 4895.964844,4965.736816 4873.298340,4965.736816 
	C4765.299316,4965.736816 4657.300293,4965.736816 4549.301270,4965.736816 
	C4544.634766,4965.736816 4539.967285,4965.779297 4535.301270,4965.723633 
	C4516.264648,4965.496582 4516.085449,4965.508789 4513.455566,4945.916992 
	C4511.505859,4931.392090 4510.095215,4916.793945 4508.450684,4902.228027 
	C4501.949707,4844.632812 4495.373535,4787.045898 4488.977051,4729.439453 
	C4483.020996,4675.804688 4477.348633,4622.138672 4471.372559,4568.506348 
	C4467.905762,4537.386719 4464.196777,4506.292969 4460.361328,4475.216797 
	C4459.206055,4465.853027 4458.054199,4465.077148 4449.194824,4464.605957 
	C4445.205078,4464.393066 4441.197266,4464.491211 4437.197754,4464.491211 
	C4340.531738,4464.486328 4243.866211,4464.501465 4147.200195,4464.479492 
	C4119.784668,4464.473145 4125.222168,4463.979980 4121.978027,4486.598145 
	C4117.913086,4514.941406 4115.437012,4543.512695 4112.221680,4571.979004 
	C4107.361328,4615.009766 4102.409180,4658.029297 4097.579590,4701.062988 
	C4093.046631,4741.449707 4088.608643,4781.847656 4084.153320,4822.243164 
	C4079.698242,4862.638672 4075.298828,4903.041016 4070.798828,4943.431641 
	C4070.283203,4948.061523 4069.139160,4952.618164 4068.533936,4957.241211 
	C4067.797607,4962.863281 4064.426025,4965.277832 4059.112061,4965.449707 
	C4053.783936,4965.621582 4048.450684,4965.723633 4043.119873,4965.724609 
	C3914.454346,4965.739746 3785.788574,4965.749512 3657.123047,4965.697754 
	C3650.482422,4965.694824 3643.826172,4965.318848 3637.208740,4964.746582 
	C3634.329102,4964.497559 3632.353760,4962.269531 3632.482178,4959.328125 
	C3632.713135,4954.030762 3633.198242,4948.721191 3633.965820,4943.474121 
	C3638.392334,4913.215332 3642.932861,4882.973633 3647.380127,4853.093262 
	C3642.772949,4849.775879 3640.712646,4853.086914 3638.549805,4855.124512 
	C3632.242920,4861.066406 3625.882812,4866.978516 3619.941162,4873.276855 
	C3591.307617,4903.629883 3556.106445,4923.135254 3516.931396,4936.206055 
	C3480.740967,4948.281250 3443.497803,4955.511719 3405.697754,4959.851074 
	C3354.644531,4965.711914 3303.357178,4967.145996 3252.001953,4967.107422 
	C3134.669678,4967.020020 3017.337158,4967.083984 2900.004883,4967.068848 
	C2894.007324,4967.067871 2887.993164,4967.156738 2882.016846,4966.754883 
	C2875.069824,4966.287598 2872.957031,4964.008789 2872.623779,4956.566895 
	C2872.296143,4949.247070 2872.427002,4941.904785 2872.426758,4934.572266 
	C2872.420166,4506.576172 2872.447266,4078.579590 2872.251221,3650.583252 
	C2872.246826,3640.985352 2875.583740,3630.730225 2869.181885,3621.698975 
	C2859.674072,3620.893555 2850.806152,3624.247803 2841.797852,3626.263184 
	C2823.441895,3630.369385 2821.709961,3626.377197 2821.753174,3650.633789 
	C2821.865723,3713.966309 2821.789551,3777.299561 2821.789551,3840.632324 
	C2821.789551,4204.629395 2821.792480,4568.625977 2821.770996,4932.623047 
	C2821.770508,4940.617676 2821.656982,4948.619629 2821.281006,4956.603516 
	C2821.065674,4961.178223 2818.279541,4963.892578 2813.644287,4964.138184 
	C2808.324219,4964.421387 2802.989258,4964.516113 2797.660645,4964.517090 
	C2667.661865,4964.536621 2537.662842,4964.532715 2407.664062,4964.531250 
	C2404.330811,4964.530762 2400.994385,4964.601562 2397.664795,4964.486328 
	C2385.907715,4964.078613 2385.431152,4964.019043 2382.756104,4952.884277 
	C2376.686523,4927.621094 2370.860352,4902.297363 2365.138428,4876.952637 
	C2340.489502,4767.771973 2315.971191,4658.562500 2291.297607,4549.387695 
	C2254.287842,4385.626465 2217.194824,4221.884277 2180.123779,4058.136475 
	C2150.849854,3928.828613 2121.536621,3799.529541 2092.320557,3670.208252 
	C2090.739746,3663.211182 2089.296631,3656.242432 2084.451904,3649.856934 
	C2084.310059,3656.816895 2083.940430,3663.780518 2084.061523,3670.735840 
	C2085.500488,3753.382080 2087.018555,3836.027100 2088.504150,3918.672607 
	C2090.025391,4003.315918 2090.719482,4087.984131 2093.300293,4172.594727 
	C2095.434814,4242.570801 2095.681396,4312.558594 2097.087646,4382.535156 
	C2098.574463,4456.513672 2099.902832,4530.495605 2101.288330,4604.476074 
	C2102.573975,4673.122559 2103.778320,4741.770020 2105.143066,4810.414551 
	C2106.031006,4855.063477 2107.204834,4899.707031 2108.125488,4944.355469 
	C2108.546387,4964.765137 2108.461182,4964.535645 2088.769531,4964.533691 
	C2013.436890,4964.525391 1938.104248,4964.530762 1862.771606,4964.528809 
	C1860.771729,4964.528809 1858.769775,4964.556641 1856.772217,4964.482422 
	C1844.274658,4964.020020 1843.577637,4963.372070 1843.201416,4950.418945 
	C1843.008057,4943.757812 1843.132324,4937.086914 1843.132324,4930.420410 
	C1843.130493,4481.757812 1843.158691,4033.094727 1843.071045,3584.431885 
	C1843.064819,3552.526855 1846.948608,3558.519043 1818.474487,3547.612793 
	C1633.877686,3476.909912 1465.297241,3378.687500 1312.600586,3253.212158 
	C1257.950317,3208.304199 1205.981201,3160.418457 1157.058960,3109.341064 
	C1029.806763,2976.482422 924.739990,2827.851807 842.400513,2663.320068 
	C767.379028,2513.412109 714.333862,2356.023193 683.483154,2191.204346 
	C672.320557,2131.568115 664.272766,2071.546631 658.934937,2011.079468 
	C652.476501,1937.917236 650.188538,1864.653687 652.955566,1791.349487 
	C659.120056,1628.037842 685.663025,1468.114258 734.751770,1312.016235 
	C783.230774,1157.856812 851.166748,1012.889648 938.241577,876.827209 
	C941.832275,871.216309 945.602722,865.715759 949.456421,860.282227 
	C950.128357,859.334778 951.635986,858.979919 953.468140,857.953247 
	C957.843140,860.584534 957.018921,865.779541 958.181091,869.797424 
	C959.655334,874.894287 960.179626,880.259705 961.251953,885.480896 
	C962.190002,890.048279 963.265686,894.589539 964.379700,899.117981 
	C965.493652,903.646423 966.689392,908.155884 967.924438,912.653076 
	C969.335938,917.792908 970.790405,922.921692 972.300476,928.033325 
	C973.621887,932.506287 974.980469,936.970520 976.443420,941.398682 
	C977.906677,945.827576 979.490234,950.217529 981.075256,954.605042 
	C982.660095,958.992065 984.266418,963.372559 985.946411,967.723816 
	C987.866455,972.696594 989.828613,977.654480 991.865173,982.580566 
	C993.647400,986.891296 995.515442,991.168152 997.423889,995.424805 
	C999.332336,999.681396 1001.314514,1003.905518 1003.307007,1008.123779 
	C1005.583740,1012.943726 1007.845520,1017.772522 1010.229431,1022.539612 
	C1012.315491,1026.711304 1014.523743,1030.823486 1016.748169,1034.923828 
	C1018.972839,1039.024780 1021.254822,1043.095337 1023.566040,1047.148193 
	C1026.207275,1051.779785 1028.865723,1056.402588 1031.596191,1060.981812 
	C1033.985718,1064.989014 1036.453125,1068.950684 1038.945312,1072.895264 
	C1041.437256,1076.839233 1043.959961,1080.765259 1046.547607,1084.646973 
	C1049.135132,1088.528564 1051.789429,1092.367065 1054.470215,1096.185303 
	C1057.534424,1100.549683 1060.619629,1104.900635 1063.770996,1109.202271 
	C1066.528442,1112.966064 1069.364014,1116.673706 1072.213257,1120.368896 
	C1075.062500,1124.063843 1077.944092,1127.734741 1080.861938,1131.375732 
	C1084.196655,1135.536743 1087.538208,1139.693970 1090.968140,1143.776245 
	C1093.969238,1147.348267 1097.070801,1150.837280 1100.176147,1154.320068 
	C1103.281494,1157.802856 1106.448120,1161.231323 1109.585327,1164.685791 
	C1113.170776,1168.633789 1116.701538,1172.632812 1120.353149,1176.518555 
	C1123.547974,1179.918335 1126.857788,1183.211182 1130.152344,1186.515625 
	C1133.447144,1189.820190 1136.739624,1193.129395 1140.118652,1196.346802 
	C1143.497437,1199.563843 1146.975708,1202.676758 1150.422241,1205.822266 
	C1154.361450,1209.417603 1158.296753,1213.017212 1162.265015,1216.580200 
	C1165.737305,1219.697754 1169.211914,1222.814941 1172.760620,1225.844238 
	C1176.309082,1228.873169 1179.943115,1231.802124 1183.553223,1234.758423 
	C1187.678955,1238.137085 1191.863525,1241.445557 1195.940552,1244.881836 
	C1199.432983,1247.825439 1203.822266,1249.906616 1205.653931,1254.345093 
	C1204.524048,1260.102173 1200.635864,1263.964966 1197.531128,1268.229004 
	C1103.766479,1397.003662 1043.367432,1540.155884 1013.635864,1696.374268 
	C1004.162781,1746.148682 997.943604,1796.381714 995.325806,1847.061768 
	C994.018921,1872.362427 992.411560,1897.626831 992.507446,1922.976196 
	C992.797791,1999.755615 999.235962,2076.007324 1010.782837,2151.915283 
	C1030.909180,2284.224365 1066.942993,2412.273438 1112.828735,2537.736572 
	C1115.568481,2545.227783 1118.598633,2552.683350 1122.268921,2559.752686 
	C1168.451904,2648.710205 1220.966187,2733.622070 1284.003418,2811.766846 
	C1343.381348,2885.375000 1410.481812,2950.719727 1489.503662,3003.231689 
	C1566.507202,3054.402832 1650.179443,3089.646484 1741.177246,3106.484863 
	C1794.391479,3116.331543 1848.118042,3120.232910 1902.351196,3117.280518 
	C1937.102173,3115.388672 1928.800293,3111.198242 1944.341675,3141.139648 
	C1974.474731,3199.193359 2006.887939,3255.847900 2046.033081,3308.400879 
	C2070.784180,3341.629639 2097.654541,3372.953857 2129.679688,3399.526123 
	C2152.918213,3418.808105 2177.961914,3435.035889 2206.501709,3445.493164 
	C2252.021484,3462.172119 2296.717529,3459.872070 2340.609131,3439.771484 
	C2367.563477,3427.427246 2391.025635,3409.992432 2412.468018,3389.686279 
	C2438.237549,3365.281494 2460.468018,3337.894775 2480.748291,3308.857178 
	C2484.182617,3303.939941 2487.523438,3298.955078 2491.054443,3294.108398 
	C2493.545166,3290.689697 2496.808105,3290.314209 2499.142822,3293.228760 
	C2502.473877,3297.387207 2505.500488,3301.787842 2508.725586,3306.032715 
	C2531.372559,3335.841797 2555.759277,3363.997803 2585.298096,3387.335938 
	C2597.892822,3397.286621 2611.137939,3406.211914 2625.323486,3413.690918 
	C2677.105469,3440.992188 2729.665283,3442.872559 2783.000244,3418.329102 
	C2813.673340,3404.214111 2839.994629,3383.932861 2864.109375,3360.665771 
	C2894.953125,3330.905518 2920.968262,3297.129150 2945.016602,3261.783936 
	C2974.690918,3218.170166 3000.318115,3172.193604 3024.402588,3125.325928 
	C3029.276611,3115.842041 3034.411133,3106.455566 3038.617188,3096.676514 
	C3042.058594,3088.675293 3047.716797,3083.926514 3055.572754,3080.919189 
	C3074.278076,3073.757812 3093.365479,3067.999023 3112.965820,3063.801514 
	C3150.178711,3055.832275 3187.957275,3052.008057 3225.699219,3047.821289 
	C3268.072998,3043.120361 3310.488770,3038.713867 3352.054199,3028.588867 
	C3378.745605,3022.086914 3404.225830,3012.623535 3428.508301,2999.719238 
	C3585.653076,2916.207031 3705.063721,2795.157715 3788.208740,2638.105713 
	C3834.671387,2550.343018 3866.654541,2457.291260 3887.733154,2360.442139 
	C3901.907959,2295.312744 3912.623535,2229.573486 3920.624756,2163.381592 
	C3927.347168,2107.768311 3931.090820,2051.998291 3933.545654,1996.024780 
	C3935.596680,1949.257568 3934.217773,1902.638916 3931.125977,1856.156128 
	C3920.695557,1699.342896 3882.555176,1549.889771 3808.677246,1410.370605 
	C3785.554932,1366.703979 3759.392334,1324.940308 3730.684570,1284.748169 
	C3727.586426,1280.410278 3724.438232,1276.100098 3721.541016,1271.629517 
	C3719.513672,1268.501221 3719.728027,1265.237305 3722.605957,1262.662842 
	C3728.067627,1257.776855 3733.649658,1253.024780 3739.207764,1248.247559 
	C3789.564941,1204.964966 3833.569336,1156.087280 3869.627197,1100.208008 
	C3918.497314,1024.473145 3948.755859,941.994080 3959.426514,852.414490 
	C3959.740234,849.779724 3959.986572,847.113464 3960.608398,844.545227 
	C3961.231201,841.974060 3963.796875,841.652588 3965.075684,843.049072 
	C3968.634766,846.935059 3971.932373,851.130493 3974.848633,855.525330 
	C4024.322510,930.081665 4068.046387,1007.878296 4105.832031,1088.987549 
	C4159.775391,1204.779419 4201.174316,1324.883545 4229.468262,1449.483887 
	C4245.566895,1520.380859 4257.387207,1591.944702 4264.972656,1664.277100 
	C4270.955566,1721.337646 4274.247070,1778.522339 4275.106445,1835.831787 
	C4276.146484,1905.201172 4271.961914,1974.346802 4264.997070,2043.380737 
	C4250.882812,2183.279053 4220.264160,2319.461182 4173.960449,2452.135742 
	C4115.118652,2620.737061 4033.009277,2777.239502 3927.434814,2921.229736 
	C3750.274414,3162.853516 3527.148926,3349.914307 3258.438232,3482.516602 
	C3206.407715,3508.192383 3152.726074,3530.123291 3099.164307,3552.318848 
	C3093.085449,3554.837646 3087.096680,3557.575195 3081.283691,3560.116211 
	C3081.521240,3565.235840 3084.990967,3563.645996 3087.150879,3564.050537 
	C3089.085693,3564.413086 3091.136963,3564.162842 3093.136963,3564.163330 
	C3158.469727,3564.175293 3223.802490,3564.148438 3289.135254,3564.208008 
	C3339.869629,3564.254150 3390.343994,3567.871338 3440.434326,3576.049805 
	C3478.053955,3582.192139 3514.625244,3591.977783 3549.554688,3607.629150 
	C3594.621094,3627.822510 3627.814697,3659.772705 3648.666992,3704.724365 
	C3663.645264,3737.013184 3673.272461,3770.879639 3679.913086,3805.664795 
	C3687.044678,3843.022217 3690.610107,3880.772461 3692.980957,3918.747803 
	C3695.560303,3960.061035 3695.299805,4001.357422 3695.329346,4042.674805 
	C3695.433350,4188.006836 3695.384277,4333.338867 3695.434326,4478.670898 
	C3695.437500,4487.907227 3695.791260,4497.143555 3697.217041,4506.461426 
	C3705.361084,4467.384277 3710.691162,4427.969727 3716.473145,4388.625977 
	C3722.185303,4349.754883 3728.094238,4310.912598 3734.282227,4270.338867 
z"/>
<path fill="#FEFEFE" opacity="1.000000" stroke="none" 
	d="
M3423.318848,2959.432129 
	C3384.792725,2982.414551 3343.944580,2994.076416 3301.408203,2999.920898 
	C3257.863281,3005.904297 3214.144287,3010.611084 3170.516357,3015.996826 
	C3132.129395,3020.735596 3094.025635,3026.972656 3057.415771,3040.002197 
	C3046.772217,3043.790283 3036.538086,3048.714111 3026.009766,3052.845947 
	C3018.038330,3055.974365 3013.334717,3061.673584 3009.726807,3069.354736 
	C2994.430908,3101.921143 2977.879639,3133.860107 2960.173584,3165.189453 
	C2934.891113,3209.925049 2907.395996,3253.189941 2874.795166,3293.035400 
	C2858.302490,3313.192871 2840.488525,3332.095459 2820.612061,3348.973877 
	C2802.741455,3364.148682 2783.508301,3377.252686 2761.748535,3386.263916 
	C2724.682129,3401.613281 2687.839111,3401.135010 2651.311768,3384.285156 
	C2631.778076,3375.274170 2614.413086,3363.027344 2598.330322,3348.865723 
	C2571.145020,3324.928467 2548.308350,3297.184814 2527.653320,3267.586182 
	C2519.267334,3255.569336 2511.479004,3243.137207 2503.289307,3230.981445 
	C2500.730469,3227.183350 2498.943115,3222.639160 2494.284424,3220.377197 
	C2488.222656,3224.087646 2486.114258,3230.658691 2482.746826,3236.191406 
	C2466.105713,3263.535400 2448.715820,3290.358643 2428.814209,3315.478271 
	C2410.970459,3337.999512 2391.704346,3359.145508 2369.249023,3377.227295 
	C2354.123291,3389.407471 2337.975586,3399.933838 2320.047363,3407.509766 
	C2285.909180,3421.935791 2251.587891,3422.479004 2216.965088,3408.962891 
	C2197.535645,3401.377930 2179.949463,3390.747314 2163.489990,3378.122314 
	C2139.566650,3359.772217 2118.758301,3338.231689 2099.457275,3315.171143 
	C2068.132812,3277.744873 2041.526978,3237.065430 2016.891724,3195.047852 
	C1998.014404,3162.851074 1980.666138,3129.826416 1964.107666,3096.383789 
	C1961.743896,3091.609375 1959.180176,3086.925293 1957.022095,3082.060547 
	C1955.160767,3077.864746 1952.165161,3075.933838 1947.681030,3076.230957 
	C1942.361694,3076.583008 1937.040527,3076.935303 1931.731445,3077.413574 
	C1823.581543,3087.154297 1719.072998,3072.530029 1618.832275,3030.171875 
	C1537.427490,2995.772949 1466.371216,2945.797363 1402.541626,2885.129883 
	C1347.717896,2833.021240 1300.106689,2774.819092 1257.251099,2712.634277 
	C1220.527222,2659.347168 1187.681519,2603.721924 1157.841309,2546.320801 
	C1153.863892,2538.670166 1150.547485,2530.621338 1147.548096,2522.525879 
	C1108.830078,2418.030762 1078.177979,2311.241211 1057.291382,2201.741943 
	C1035.348389,2086.703857 1025.841309,1970.634399 1032.467285,1853.642578 
	C1043.916748,1651.485718 1103.296509,1465.330566 1221.358521,1299.426147 
	C1299.557983,1189.537842 1396.483765,1098.994995 1508.204956,1023.955261 
	C1619.582764,949.146057 1740.104614,893.398193 1867.550293,852.228455 
	C1958.346680,822.897949 2051.047852,801.780762 2145.399902,787.503235 
	C2263.715820,769.599365 2382.642822,763.289185 2502.142822,767.354614 
	C2768.385010,776.412231 3023.215820,833.942383 3264.653320,947.843262 
	C3322.547852,975.155823 3378.470215,1006.105713 3432.719482,1040.095703 
	C3446.861816,1048.956909 3460.359375,1058.624878 3473.288330,1069.186646 
	C3563.059082,1142.521484 3643.346436,1224.776123 3709.740234,1320.121338 
	C3794.784912,1442.250488 3849.905273,1576.697754 3876.787842,1723.045288 
	C3895.318115,1823.924438 3899.973633,1925.598145 3894.780518,2027.682251 
	C3888.709473,2147.018799 3871.811279,2265.012207 3844.073486,2381.297363 
	C3822.323242,2472.481201 3789.495605,2559.546631 3743.436035,2641.348633 
	C3667.016357,2777.070312 3561.021240,2883.209717 3423.318848,2959.432129 
z"/>
<path fill="#F3D133" opacity="1.000000" stroke="none" 
	d="
M1731.690918,4368.501953 
	C1742.233398,4437.399414 1752.618286,4504.546875 1762.854858,4571.716309 
	C1774.095459,4645.474121 1785.144653,4719.260742 1796.381958,4793.019043 
	C1803.706055,4841.092285 1811.388916,4889.111816 1818.579956,4937.205078 
	C1822.913330,4966.186523 1823.248901,4964.025879 1796.465576,4964.039062 
	C1711.139282,4964.080566 1625.813110,4964.086426 1540.486816,4964.032227 
	C1517.717773,4964.017578 1517.880981,4965.970703 1515.348022,4941.829590 
	C1509.717285,4888.166992 1503.088867,4834.609863 1497.042358,4780.989746 
	C1492.414062,4739.947266 1488.070679,4698.871582 1483.564575,4657.814941 
	C1482.256226,4645.895020 1480.927734,4633.975098 1479.413574,4622.080078 
	C1478.308716,4613.401367 1476.452026,4611.652832 1468.265747,4611.161133 
	C1464.278809,4610.921387 1460.269287,4611.027832 1456.269897,4611.027344 
	C1388.942139,4611.020996 1321.614502,4610.973145 1254.286743,4611.049805 
	C1229.655762,4611.078125 1232.040527,4609.443848 1229.143799,4633.574219 
	C1222.712769,4687.148438 1217.325562,4740.846680 1211.389893,4794.480957 
	C1206.040527,4842.817383 1200.544189,4891.138184 1195.061035,4939.459961 
	C1194.535522,4944.091797 1193.738892,4948.698730 1192.902100,4953.287109 
	C1191.161011,4962.833984 1190.511719,4963.492676 1181.744263,4963.923828 
	C1177.088013,4964.152832 1172.414307,4964.050293 1167.748413,4964.050293 
	C1085.088623,4964.056152 1002.428711,4964.109375 919.769043,4964.020020 
	C896.321350,4963.994629 894.545898,4967.091797 898.672302,4940.641113 
	C910.582703,4864.293945 921.250671,4787.752930 932.631287,4711.322266 
	C945.189148,4626.985352 958.014709,4542.688477 970.686340,4458.368164 
	C976.230164,4421.478027 981.761719,4384.585449 987.091064,4347.663574 
	C987.924072,4341.893066 989.921875,4335.849609 986.261169,4329.980957 
	C978.756592,4329.860840 972.142273,4333.253906 965.280884,4335.598145 
	C912.104004,4353.770996 857.380371,4364.941895 801.757263,4372.276855 
	C727.599243,4382.055176 653.092896,4385.138672 578.375916,4384.775879 
	C551.045715,4384.643066 523.712952,4384.649414 496.383789,4384.880371 
	C486.306213,4384.965332 485.005951,4386.543457 484.609772,4396.676270 
	C484.375488,4402.667480 484.514923,4408.673340 484.514832,4414.672852 
	C484.511719,4589.325195 484.540894,4763.977051 484.483917,4938.629395 
	C484.474487,4967.623047 487.070099,4965.133789 457.179230,4965.149414 
	C329.189941,4965.217773 201.200546,4965.195801 73.211182,4965.165039 
	C45.057659,4965.158203 46.765053,4966.962891 46.764378,4939.564941 
	C46.748337,4288.285645 46.752609,3637.006592 46.749065,2985.727295 
	C46.748917,2958.307129 45.636719,2960.375488 71.331810,2960.388428 
	C235.317764,2960.471191 399.307495,2960.003906 563.287659,2961.037354 
	C624.553772,2961.423584 685.792175,2965.028564 746.847290,2971.280762 
	C805.255493,2977.262207 863.185974,2985.680420 920.158325,3000.044922 
	C950.566223,3007.711426 980.290649,3017.433594 1009.182129,3029.737305 
	C1034.475220,3040.508545 1056.983765,3056.011230 1080.481323,3069.927734 
	C1102.987061,3083.257324 1118.569336,3101.152344 1131.698608,3123.820312 
	C1160.020874,3172.719238 1182.197998,3223.607178 1193.830933,3278.977295 
	C1201.101074,3313.582031 1205.679443,3348.508545 1208.653931,3383.762451 
	C1212.810791,3433.029785 1211.470947,3482.342041 1211.852661,3531.649414 
	C1211.888794,3536.315430 1211.772705,3540.984375 1211.890503,3545.647705 
	C1212.258179,3560.221191 1212.809326,3560.985596 1228.240723,3561.066650 
	C1262.903687,3561.248779 1297.567993,3561.113525 1332.231812,3561.161133 
	C1337.556152,3561.168457 1342.898926,3561.240234 1348.198730,3561.689209 
	C1352.875366,3562.085693 1355.311768,3565.045166 1354.849365,3569.838379 
	C1353.761963,3581.107910 1352.428345,3592.354248 1351.125366,3603.602051 
	C1344.609741,3659.849854 1338.129395,3716.101562 1331.524902,3772.338867 
	C1325.464355,3823.945068 1319.144165,3875.521240 1313.154419,3927.135742 
	C1307.164429,3978.751709 1301.550415,4030.411621 1295.572266,4082.029297 
	C1289.594727,4133.643555 1283.291016,4185.220215 1277.279419,4236.830566 
	C1272.654541,4276.533203 1268.233887,4316.260742 1263.779175,4355.982910 
	C1262.220459,4369.882324 1260.568481,4383.780762 1259.471191,4397.719238 
	C1258.887207,4405.136230 1261.165283,4407.259766 1268.440063,4407.749023 
	C1272.424438,4408.017578 1276.434937,4407.947266 1280.433594,4407.947754 
	C1330.429443,4407.958984 1380.425293,4407.955566 1430.421143,4407.954102 
	C1433.087524,4407.953613 1435.756348,4408.006348 1438.420044,4407.916016 
	C1450.821899,4407.494629 1452.178955,4405.988770 1450.819946,4393.665039 
	C1443.517700,4327.450684 1436.073242,4261.251953 1428.887939,4195.024902 
	C1422.923828,4140.053711 1417.363281,4085.038330 1411.415894,4030.064941 
	C1405.468994,3975.094482 1399.179688,3920.161377 1393.199463,3865.194336 
	C1388.588013,3822.807617 1384.300171,3780.385742 1379.726685,3737.994873 
	C1375.010742,3694.281738 1370.112915,3650.588623 1365.317871,3606.884033 
	C1364.010010,3594.963623 1362.713135,3583.041504 1361.554199,3571.106201 
	C1360.952515,3564.910156 1363.106323,3562.013428 1368.802246,3561.520020 
	C1373.439209,3561.118896 1378.121948,3561.155029 1382.784424,3561.153564 
	C1450.778809,3561.133545 1518.773071,3561.093750 1586.767456,3561.166504 
	C1609.129028,3561.190430 1607.888672,3559.456543 1611.461792,3582.514404 
	C1627.477051,3685.865234 1643.265747,3789.251221 1659.035156,3892.639893 
	C1672.896362,3983.517822 1686.561890,4074.425537 1700.429565,4165.302734 
	C1710.679321,4232.470215 1721.115234,4299.609375 1731.690918,4368.501953 
z"/>
<path fill="#F3D133" opacity="1.000000" stroke="none" 
	d="
M2050.422852,90.267776 
	C2112.405029,75.734215 2173.389404,64.863884 2234.888672,57.159416 
	C2269.908691,52.772224 2305.080078,49.663239 2340.322266,47.119812 
	C2400.916748,42.746704 2461.529541,42.763931 2522.172363,44.027596 
	C2572.156982,45.069168 2621.920410,49.353619 2671.615234,54.920296 
	C2754.520996,64.207222 2836.298096,79.388802 2917.057129,100.146805 
	C3061.050293,137.158432 3198.187256,191.599167 3328.810547,262.533386 
	C3331.152588,263.805267 3333.521729,265.035553 3335.803955,266.408234 
	C3345.149902,272.029541 3345.459473,273.574188 3337.713135,280.766998 
	C3308.259033,308.114838 3283.771729,339.788605 3259.374756,371.450378 
	C3195.962891,453.744354 3143.537354,542.383423 3106.653564,639.807983 
	C3086.781006,692.299133 3071.953857,746.114502 3063.066406,801.624512 
	C3058.884277,827.744934 3062.072266,826.793030 3036.737549,818.876709 
	C2943.724365,789.812988 2848.990479,768.082825 2752.758789,753.092224 
	C2701.426514,745.095886 2649.830322,739.050049 2597.959229,735.147522 
	C2538.103027,730.644104 2478.236572,727.861328 2418.213379,728.446045 
	C2355.534180,729.056702 2293.062744,732.905701 2230.686035,739.123596 
	C2107.626953,751.390442 1987.076538,775.776611 1868.972656,812.398010 
	C1853.751953,817.117554 1853.705444,816.940430 1851.703613,801.615845 
	C1840.298340,714.304260 1814.507568,631.277344 1777.143066,551.717407 
	C1732.628418,456.932556 1674.228760,371.281677 1606.163574,291.988495 
	C1600.139893,284.971161 1593.187012,278.628632 1588.959229,270.496948 
	C1591.799316,264.728912 1597.216064,263.179443 1601.781982,260.697998 
	C1708.699219,202.593445 1820.486572,156.082733 1936.864380,120.640762 
	C1973.827026,109.384071 2011.101074,99.180695 2050.422852,90.267776 
z"/>
<path fill="#373435" opacity="1.000000" stroke="none" 
	d="
M1275.960693,299.883850 
	C1290.081787,292.126526 1302.846436,284.937073 1315.736450,277.979828 
	C1343.127075,263.196136 1373.097168,257.013947 1403.398926,252.030060 
	C1411.269653,250.735504 1419.149536,249.116043 1427.084106,248.653473 
	C1466.708496,246.343414 1504.113892,253.554794 1537.080933,276.861328 
	C1553.486816,288.459808 1566.868408,303.576416 1579.885132,318.691681 
	C1595.939575,337.334442 1611.471680,356.510162 1626.052856,376.321655 
	C1658.035278,419.776215 1688.150879,464.402283 1714.514160,511.674896 
	C1740.264038,557.847351 1761.480957,605.896484 1778.759277,655.593750 
	C1791.856567,693.264954 1802.442261,731.859985 1808.468262,771.495422 
	C1810.266479,783.322937 1812.752197,795.044678 1814.676758,806.854919 
	C1815.422974,811.433716 1815.623779,816.117432 1815.828857,820.764160 
	C1816.096436,826.827942 1813.255005,830.664978 1807.417603,832.743652 
	C1795.499390,836.987671 1783.699951,841.564453 1771.844360,845.985107 
	C1713.693359,867.668152 1657.527100,893.803162 1602.824341,922.964539 
	C1540.433105,956.224487 1480.853027,994.037964 1424.875244,1037.342773 
	C1397.499512,1058.520996 1370.934814,1080.624390 1345.257812,1103.913086 
	C1327.980347,1119.583618 1310.596802,1135.112183 1294.641479,1152.075806 
	C1276.873413,1170.966797 1260.015625,1190.714355 1242.774658,1210.100708 
	C1241.448975,1211.591431 1240.317261,1213.260986 1238.941284,1214.699951 
	C1233.548218,1220.339355 1229.521851,1221.001587 1223.106201,1217.003052 
	C1219.154175,1214.539917 1215.228882,1211.947632 1211.656616,1208.974609 
	C1174.723389,1178.237305 1140.186768,1145.097778 1110.151367,1107.450195 
	C1081.788696,1071.899414 1057.476318,1033.809692 1038.143311,992.616699 
	C1014.800720,942.880371 998.843567,891.066895 991.212158,836.430542 
	C986.191284,800.484192 987.068848,764.580750 988.638000,728.771118 
	C989.915222,699.623291 996.401367,670.856445 1003.661865,642.427795 
	C1016.988525,590.246582 1039.884888,542.281006 1068.003662,496.766205 
	C1079.168335,478.694611 1092.461182,461.897461 1105.305054,444.913391 
	C1123.043945,421.456757 1143.724609,400.550171 1165.513184,380.993561 
	C1199.248901,350.713776 1235.304077,323.331207 1275.960693,299.883850 
z"/>
<path fill="#373435" opacity="1.000000" stroke="none" 
	d="
M3103.045410,794.916077 
	C3107.795166,762.168274 3116.091309,732.029297 3125.112061,702.066223 
	C3143.057373,642.460815 3168.497314,585.988037 3198.469482,531.644043 
	C3226.162109,481.433228 3257.997314,433.768250 3293.505615,388.698669 
	C3311.615234,365.712433 3329.996582,342.849457 3349.641846,321.188232 
	C3370.235352,298.480835 3396.385742,283.690002 3426.257568,276.613464 
	C3452.413330,270.417328 3478.781738,270.633575 3505.524658,274.789368 
	C3527.339844,278.179413 3548.509521,283.623535 3569.681641,289.381653 
	C3575.437500,290.947083 3581.267822,292.851166 3586.491699,295.662933 
	C3626.983398,317.457428 3666.675293,340.538910 3703.281982,368.598633 
	C3749.555908,404.068970 3789.985352,445.110046 3824.482910,492.207367 
	C3857.470947,537.244080 3882.533447,586.320374 3899.934570,639.104187 
	C3910.126465,670.019348 3917.063721,701.836182 3920.906250,734.459595 
	C3923.493896,756.425903 3923.771484,778.240479 3924.159912,800.176819 
	C3924.872070,840.414673 3918.004150,879.621399 3908.475586,918.521057 
	C3897.308105,964.108887 3879.441406,1006.874573 3856.622314,1047.845459 
	C3834.788086,1087.047729 3807.695312,1122.140015 3778.879883,1156.392578 
	C3758.540527,1180.569702 3734.289551,1200.188965 3711.861328,1221.918945 
	C3709.489990,1224.216309 3706.731934,1226.182617 3703.936523,1227.961548 
	C3695.383789,1233.403931 3691.087402,1233.028809 3685.057617,1225.366821 
	C3665.666748,1200.727295 3643.331543,1178.766479 3622.453613,1155.494141 
	C3600.145752,1130.628052 3575.064697,1108.789917 3550.932617,1085.992798 
	C3526.799805,1063.194702 3500.897217,1042.042358 3474.260010,1022.195801 
	C3453.506104,1006.732361 3430.866211,993.618408 3408.292480,980.822083 
	C3374.698486,961.778625 3340.943848,942.881165 3306.325195,925.812378 
	C3243.580811,894.876099 3179.208496,867.558960 3113.314453,843.938416 
	C3111.433105,843.263977 3109.517090,842.682068 3107.655029,841.959290 
	C3096.442871,837.606812 3095.762451,836.368347 3097.891113,824.093201 
	C3099.480713,814.926514 3101.113525,805.767212 3103.045410,794.916077 
z"/>
<path fill="#010101" opacity="1.000000" stroke="none" 
	d="
M3527.427734,3367.396973 
	C3592.972168,3321.263672 3654.003662,3271.842285 3712.161865,3218.769775 
	C3744.181396,3189.550293 3775.202393,3159.362305 3804.963623,3127.889404 
	C3822.805664,3109.020752 3839.875244,3089.422119 3857.315674,3070.172852 
	C3862.131836,3064.857422 3867.033447,3059.619141 3871.772705,3054.479004 
	C3877.435791,3058.004883 3875.579346,3062.241943 3875.071289,3065.707764 
	C3871.115234,3092.701172 3866.858643,3119.649902 3862.789307,3146.626709 
	C3856.633545,3187.432129 3850.511475,3228.242920 3844.455322,3269.063232 
	C3838.593994,3308.569092 3832.897705,3348.099609 3827.010498,3387.601807 
	C3820.927246,3428.416504 3814.682861,3469.207275 3808.542725,3510.013428 
	C3799.332031,3571.222168 3790.068359,3632.422852 3780.978271,3693.649414 
	C3769.833740,3768.711670 3758.843506,3843.797119 3747.789062,3918.872803 
	C3745.074951,3937.306641 3742.409912,3955.747314 3739.642578,3974.172852 
	C3738.787598,3979.865234 3738.863525,3985.992920 3732.248535,3991.442871 
	C3732.248535,3972.590088 3732.743408,3955.261963 3732.163086,3937.969727 
	C3729.652100,3863.139893 3721.261719,3789.242432 3695.970459,3718.142334 
	C3687.894043,3695.437012 3677.267090,3674.043213 3664.047852,3653.869141 
	C3644.634277,3624.241211 3619.007812,3601.474365 3588.307373,3584.180420 
	C3548.364502,3561.679932 3505.135498,3548.535645 3460.358154,3540.333740 
	C3422.362793,3533.374268 3384.033691,3529.263184 3345.374023,3527.286865 
	C3323.408936,3526.164062 3301.485107,3525.499268 3279.517578,3525.195068 
	C3275.850342,3525.144531 3271.579102,3526.722412 3267.781250,3521.715332 
	C3274.067139,3515.862793 3282.386963,3513.418457 3289.667480,3509.420410 
	C3296.669189,3505.575195 3303.956543,3502.253906 3311.077393,3498.621582 
	C3318.792480,3494.686035 3326.492920,3490.718994 3334.138672,3486.651123 
	C3341.195557,3482.896484 3348.180908,3479.006592 3355.180420,3475.144775 
	C3362.763184,3470.961670 3370.357910,3466.798584 3377.888672,3462.523926 
	C3385.419434,3458.248535 3392.896240,3453.877197 3400.361572,3449.488770 
	C3407.252930,3445.438721 3414.126465,3441.356689 3420.956787,3437.205322 
	C3428.356934,3432.707764 3435.708740,3428.130127 3443.062012,3423.555420 
	C3449.850586,3419.331787 3456.660156,3415.139648 3463.373779,3410.799561 
	C3470.646973,3406.097412 3477.822021,3401.244141 3485.036133,3396.450439 
	C3491.693604,3392.025879 3498.394775,3387.664795 3504.986328,3383.144287 
	C3512.128906,3378.245605 3519.167236,3373.194580 3527.427734,3367.396973 
z"/>
<path fill="#010101" opacity="1.000000" stroke="none" 
	d="
M1659.738525,3644.235107 
	C1654.190186,3606.927490 1648.759399,3571.381104 1643.366821,3535.829346 
	C1641.716797,3524.950684 1640.585815,3523.820312 1629.357544,3523.407715 
	C1624.031250,3523.211670 1618.692749,3523.338623 1613.359741,3523.338379 
	C1501.365723,3523.335938 1389.371582,3523.344727 1277.377563,3523.330322 
	C1249.702759,3523.326660 1250.487549,3525.111816 1251.138428,3497.573486 
	C1252.021362,3460.210449 1249.547485,3422.967529 1247.267334,3385.768799 
	C1244.372070,3338.534180 1237.877319,3291.695312 1225.320557,3245.876465 
	C1223.962158,3240.919678 1221.464111,3235.914307 1223.031860,3230.384277 
	C1229.024292,3228.622559 1231.277466,3233.828857 1234.378784,3236.581055 
	C1281.777954,3278.647705 1331.173584,3318.201172 1382.548218,3355.305664 
	C1474.662842,3421.833740 1572.241333,3479.083496 1674.878174,3527.766357 
	C1711.015747,3544.907471 1747.709595,3560.768066 1784.901001,3575.480713 
	C1789.236450,3577.196045 1793.588623,3578.885254 1797.837891,3580.797852 
	C1801.814331,3582.587646 1803.911743,3585.839600 1804.051270,3590.221924 
	C1804.199707,3594.883789 1804.323120,3599.549072 1804.323242,3604.212891 
	C1804.330078,3917.529541 1804.323242,4230.846191 1804.317749,4544.163086 
	C1804.317627,4551.447754 1804.317749,4558.732422 1804.317749,4566.357422 
	C1802.537842,4565.883789 1801.973511,4565.893066 1801.672241,4565.616211 
	C1801.229248,4565.208496 1800.772827,4564.633789 1800.668823,4564.066895 
	C1799.227417,4556.207031 1797.679688,4548.361328 1796.473145,4540.463867 
	C1750.918701,4242.310547 1705.396729,3944.152100 1659.738525,3644.235107 
z"/>
<path fill="#020202" opacity="1.000000" stroke="none" 
	d="
M1324.827881,4157.157227 
	C1328.701294,4124.980957 1332.484619,4094.621582 1336.130249,4064.246094 
	C1340.884644,4024.632080 1345.565063,3985.009521 1350.191895,3945.380615 
	C1351.117676,3937.451172 1351.749756,3929.483887 1352.354614,3921.521729 
	C1352.956421,3913.598877 1353.656250,3905.734863 1358.284424,3897.898926 
	C1360.164795,3914.236572 1361.992676,3929.770752 1363.733398,3945.314697 
	C1367.433228,3978.351562 1371.171387,4011.384521 1374.735352,4044.436279 
	C1377.873291,4073.535889 1380.706909,4102.668457 1383.836304,4131.768555 
	C1387.462280,4165.485840 1391.364258,4199.173828 1394.960938,4232.894043 
	C1398.276001,4263.974609 1401.334839,4295.082520 1404.528442,4326.176270 
	C1405.614990,4336.754883 1407.090820,4347.306152 1407.786499,4357.909180 
	C1408.315063,4365.963867 1406.530518,4368.192871 1399.370605,4368.246582 
	C1369.410156,4368.469727 1339.446289,4368.450195 1309.485229,4368.269043 
	C1303.292358,4368.231445 1301.442505,4365.730957 1302.140991,4359.226562 
	C1305.834473,4324.833008 1309.594604,4290.445312 1313.467773,4256.071289 
	C1317.115967,4223.693359 1320.933472,4191.334961 1324.827881,4157.157227 
z"/>
<path fill="#010101" opacity="1.000000" stroke="none" 
	d="
M1803.091553,5002.995605 
	C1703.310425,5003.855469 1602.047485,5003.946777 1500.784668,5003.933594 
	C1496.182129,5003.932617 1491.579590,5002.982910 1485.562622,5001.717773 
	C1582.007568,5001.034668 1679.866821,5001.085449 1777.726074,5001.226562 
	C1785.687866,5001.238281 1793.648682,5001.866211 1803.091553,5002.995605 
z"/>
<path fill="#010101" opacity="1.000000" stroke="none" 
	d="
M1828.020508,5010.521484 
	C1823.501953,5011.799316 1818.868530,5011.808105 1816.361572,5005.311523 
	C1820.958618,5003.408203 1826.093628,5002.373535 1828.020508,5010.521484 
z"/>
<path fill="#626160" opacity="1.000000" stroke="none" 
	d="
M2573.517822,4586.158691 
	C2574.362549,4624.658203 2575.101318,4661.290527 2575.783203,4697.923340 
	C2576.650879,4744.546875 2577.474854,4791.170898 2578.308105,4837.794922 
	C2578.354492,4840.379883 2578.313965,4842.966309 2578.313965,4845.874512 
	C2572.368896,4843.419922 2572.854248,4838.229980 2571.863770,4833.901367 
	C2558.493164,4775.488770 2545.189941,4717.061035 2531.842773,4658.642578 
	C2495.212402,4498.314941 2458.557861,4337.992676 2421.934082,4177.663574 
	C2384.124512,4012.143066 2346.338135,3846.617920 2308.554443,3681.091797 
	C2307.517090,3676.547852 2306.493896,3671.993896 2305.701172,3667.403564 
	C2304.844482,3662.442383 2306.845459,3660.030029 2312.266846,3660.076172 
	C2320.255127,3660.143799 2328.271973,3660.319824 2336.220703,3661.054443 
	C2387.387939,3665.783691 2438.685547,3665.372314 2489.976807,3665.122314 
	C2505.964111,3665.044434 2521.948730,3664.477539 2537.935303,3664.161377 
	C2541.929688,3664.082275 2545.926514,3664.069580 2549.921875,3664.091309 
	C2554.590088,3664.116455 2557.487793,3666.450684 2557.961914,3671.102539 
	C2558.433350,3675.729736 2558.610840,3680.398193 2558.685791,3685.052490 
	C2558.995850,3704.370850 2559.185303,3723.691162 2559.478760,3743.010010 
	C2561.319580,3864.245361 2562.433838,3985.498535 2565.292969,4106.709961 
	C2567.162842,4185.975586 2566.753906,4265.276855 2569.302002,4344.503418 
	C2571.872314,4424.426270 2571.223389,4504.377930 2573.517822,4586.158691 
z"/>
<path fill="#626160" opacity="1.000000" stroke="none" 
	d="
M4176.920898,4037.065186 
	C4180.700684,4005.513672 4184.325195,3975.761963 4187.842773,3945.997803 
	C4192.768555,3904.328369 4197.652832,3862.653320 4202.483887,3820.972656 
	C4207.008301,3781.936279 4211.407715,3742.885498 4215.923340,3703.848145 
	C4220.744141,3662.166748 4225.655273,3620.495850 4230.493652,3578.816406 
	C4234.948242,3540.441406 4239.330566,3502.058105 4243.798340,3463.684814 
	C4248.728027,3421.345947 4253.785156,3379.021484 4258.663574,3336.676514 
	C4263.313477,3296.312012 4267.722656,3255.919678 4272.387207,3215.556885 
	C4277.051270,3175.197998 4281.942383,3134.865234 4286.651855,3094.511719 
	C4288.660156,3077.310303 4290.451660,3060.083740 4292.359863,3042.870605 
	C4292.865234,3038.314941 4292.507324,3033.555664 4295.041504,3029.527588 
	C4299.738770,3028.761475 4298.969238,3032.354736 4299.194824,3034.461182 
	C4306.418945,3102.014893 4313.491211,3169.584961 4320.698242,3237.140381 
	C4327.339844,3299.398438 4334.101074,3361.643311 4340.827637,3423.892334 
	C4347.410645,3484.813721 4353.945312,3545.740479 4360.633789,3606.650391 
	C4366.667480,3661.602051 4373.001953,3716.520996 4378.974609,3771.479004 
	C4383.652344,3814.520508 4387.850586,3857.613770 4392.500000,3900.658447 
	C4397.004883,3942.376709 4401.869629,3984.055664 4406.471191,4025.763672 
	C4410.781738,4064.824707 4414.984375,4103.896973 4419.142578,4142.974609 
	C4419.562500,4146.921387 4419.538086,4150.944336 4419.361816,4154.916016 
	C4419.230469,4157.876953 4417.298340,4159.776367 4414.354004,4160.157715 
	C4411.064941,4160.584473 4407.734375,4160.897461 4404.421875,4160.899414 
	C4329.774414,4160.940918 4255.126953,4160.938965 4180.479492,4160.914062 
	C4177.156250,4160.913086 4173.816406,4160.775879 4170.514160,4160.422363 
	C4166.801758,4160.024902 4164.194336,4157.883789 4164.329102,4154.041992 
	C4164.561035,4147.402832 4165.140625,4140.762207 4165.880371,4134.156738 
	C4169.437012,4102.384766 4173.095703,4070.624268 4176.920898,4037.065186 
z"/>
<path fill="#616060" opacity="1.000000" stroke="none" 
	d="
M3387.330566,4416.000000 
	C3387.319092,4489.949219 3387.302246,4561.897949 3387.301025,4633.847168 
	C3387.300781,4652.572266 3385.104980,4670.997559 3380.731689,4689.235352 
	C3373.603027,4718.961914 3354.507812,4736.341309 3325.410889,4743.211914 
	C3314.426758,4745.805664 3303.266357,4747.900391 3291.832764,4747.890625 
	C3256.524902,4747.860840 3221.217041,4747.979492 3185.909180,4748.002441 
	C3183.254395,4748.004395 3180.589600,4747.803223 3177.947266,4747.526367 
	C3174.114258,4747.125000 3171.846191,4744.695801 3171.640625,4741.063477 
	C3171.227295,4733.757324 3171.135498,4726.424805 3171.134521,4719.103516 
	C3171.111084,4517.246582 3171.115723,4315.389648 3171.115967,4113.532715 
	C3171.115967,4012.271240 3171.107178,3911.009521 3171.121582,3809.748047 
	C3171.125488,3782.438477 3169.577637,3784.581299 3195.668213,3784.516846 
	C3221.649658,3784.452637 3247.633789,3784.720459 3273.612061,3784.424072 
	C3288.338867,3784.256104 3302.894287,3785.482178 3317.350342,3787.995605 
	C3323.232178,3789.018311 3329.076172,3790.489258 3334.779541,3792.263916 
	C3357.508545,3799.335205 3372.255371,3814.499512 3379.159180,3837.187744 
	C3384.229736,3853.850830 3386.352295,3871.039307 3387.086426,3888.376221 
	C3387.509033,3898.353516 3387.322998,3908.358643 3387.323730,3918.351318 
	C3387.334473,4083.567627 3387.331055,4248.783691 3387.330566,4416.000000 
z"/>
<path fill="#383536" opacity="1.000000" stroke="none" 
	d="
M1570.654541,2070.700684 
	C1611.714233,1993.256226 1665.171265,1927.229004 1727.430542,1868.136475 
	C1745.778442,1850.722046 1765.520874,1834.786743 1784.288208,1817.802124 
	C1816.569580,1788.587158 1854.837891,1770.304810 1895.678955,1757.118042 
	C1967.523193,1733.921021 2038.540894,1736.146118 2108.346924,1765.879150 
	C2127.332764,1773.965820 2146.369385,1781.891113 2164.093750,1792.606323 
	C2230.758545,1832.908081 2270.581787,1891.678467 2284.265137,1968.130493 
	C2294.277832,2024.071899 2290.240479,2079.628418 2277.761230,2134.723145 
	C2255.520752,2232.914795 2212.139648,2321.528564 2154.706055,2403.591797 
	C2116.310059,2458.453125 2072.086914,2508.086426 2019.664429,2550.056396 
	C1986.205811,2576.843750 1950.271851,2599.518311 1909.713135,2614.107910 
	C1885.756104,2622.725342 1861.129150,2627.975586 1835.484375,2627.871582 
	C1822.714844,2627.819824 1810.098267,2626.310547 1797.984253,2622.738037 
	C1745.337524,2607.210693 1695.282104,2585.893799 1650.120361,2554.184326 
	C1601.750488,2520.222412 1563.274414,2477.762207 1538.648438,2423.517334 
	C1521.642822,2386.058350 1512.860962,2346.774902 1511.248535,2305.648926 
	C1508.637573,2239.054932 1523.746948,2176.112549 1549.407471,2115.294189 
	C1555.610474,2100.592773 1563.045532,2086.410889 1570.654541,2070.700684 
z"/>
<path fill="#383536" opacity="1.000000" stroke="none" 
	d="
M3375.678223,2060.314941 
	C3403.436279,2110.985352 3423.854248,2162.848633 3434.149170,2218.347168 
	C3443.989502,2271.395752 3444.183105,2324.364990 3430.075439,2376.808594 
	C3412.327148,2442.785645 3375.247070,2496.093506 3322.374512,2538.705566 
	C3271.787842,2579.475830 3213.781006,2605.741699 3151.755859,2623.234375 
	C3118.734863,2632.546875 3085.718994,2627.797363 3053.337891,2617.822266 
	C3024.479248,2608.932373 2997.861084,2595.373291 2972.560303,2579.127686 
	C2938.201172,2557.065918 2907.105225,2530.954102 2878.765137,2501.639893 
	C2786.381348,2406.081055 2719.845459,2295.240967 2682.431152,2167.400146 
	C2665.816650,2110.630859 2658.177246,2052.740479 2663.958008,1993.611206 
	C2670.191406,1929.848511 2693.434570,1873.675659 2740.390381,1828.748291 
	C2749.027344,1820.484253 2758.246094,1812.646851 2768.017334,1805.781006 
	C2807.718750,1777.884644 2851.742676,1759.283081 2898.797607,1748.262207 
	C2952.048828,1735.790039 3004.699951,1740.659912 3056.413818,1757.155396 
	C3080.542725,1764.851807 3103.739258,1774.964966 3125.878418,1787.353638 
	C3130.512451,1789.946899 3135.176758,1792.608765 3139.390381,1795.813110 
	C3218.456299,1855.942261 3288.015625,1925.281860 3343.592041,2007.982544 
	C3354.723145,2024.546631 3364.582031,2041.965576 3375.678223,2060.314941 
z"/>
<path fill="#383536" opacity="1.000000" stroke="none" 
	d="
M2645.484375,2814.203369 
	C2672.160889,2827.222168 2695.116943,2842.935303 2715.052734,2862.939697 
	C2729.260742,2877.196533 2741.234619,2893.102051 2749.828857,2911.354736 
	C2769.175537,2952.443115 2769.158691,2993.594727 2749.591797,3034.614990 
	C2737.313965,3060.354736 2719.019043,3081.299072 2696.941895,3098.997559 
	C2663.701172,3125.646240 2625.895752,3143.190918 2584.746582,3153.506836 
	C2505.028320,3173.491455 2426.489990,3170.166016 2349.612061,3140.162842 
	C2315.133301,3126.706299 2284.203857,3107.536377 2258.192871,3080.889648 
	C2248.384521,3070.841553 2239.577881,3059.981934 2232.526123,3047.847900 
	C2203.143066,2997.285156 2203.387939,2946.668213 2233.316650,2896.504883 
	C2247.869141,2872.113525 2268.051025,2852.820557 2291.224854,2836.646484 
	C2323.257812,2814.289062 2358.603027,2799.329102 2396.542480,2790.445557 
	C2472.383789,2772.687744 2547.047119,2776.135254 2620.276123,2803.437744 
	C2628.365723,2806.453857 2636.222168,2810.095703 2645.484375,2814.203369 
z"/>
<path fill="#62615F" opacity="1.000000" stroke="none" 
	d="
M770.886108,3664.000000 
	C770.882629,3737.320068 770.922852,3808.640381 770.853333,3879.960449 
	C770.829895,3903.996338 769.073914,3927.919434 763.970337,3951.447266 
	C762.000854,3960.526611 759.334167,3969.535889 756.085510,3978.241455 
	C745.405701,4006.862061 725.280579,4026.009521 696.469788,4036.033447 
	C675.526184,4043.320068 653.812256,4047.233643 631.778809,4047.582764 
	C587.131104,4048.290283 542.466858,4047.950928 497.809418,4048.034668 
	C496.477753,4048.037109 495.141418,4047.998047 493.814880,4047.887207 
	C487.449097,4047.354736 485.255219,4045.474365 484.787720,4039.626953 
	C484.469635,4035.648682 484.517212,4031.635498 484.517059,4027.637939 
	C484.506226,3786.349121 484.494598,3545.060547 484.530945,3303.771729 
	C484.533936,3283.904541 484.688538,3283.765137 504.206238,3283.733398 
	C543.531982,3283.668945 582.858093,3283.787109 622.184021,3283.801025 
	C643.627686,3283.808838 664.683228,3286.694580 685.422668,3292.081543 
	C725.111267,3302.389893 749.985535,3327.450195 760.840942,3366.941895 
	C768.329346,3394.184082 770.632507,3422.030762 770.764832,3450.039307 
	C771.098816,3520.691650 770.882629,3591.346191 770.886108,3664.000000 
z"/>
<path fill="#010101" opacity="1.000000" stroke="none" 
	d="
M2451.998535,3703.872070 
	C2471.315918,3703.815674 2488.635498,3703.714844 2505.955322,3703.717529 
	C2518.790527,3703.719482 2519.992188,3704.647949 2520.225342,3716.857910 
	C2520.657715,3739.499023 2519.887451,3762.196289 2521.171387,3784.781738 
	C2525.294189,3857.303711 2522.924561,3929.912842 2524.849365,4002.462158 
	C2526.650146,4070.342041 2527.528809,4138.247070 2528.618896,4206.144531 
	C2530.018799,4293.353516 2531.229004,4380.565918 2532.477295,4467.777344 
	C2532.504883,4469.725586 2532.002930,4471.681152 2531.723145,4473.822754 
	C2526.933105,4473.086426 2528.259033,4469.119629 2527.676270,4466.577637 
	C2508.783936,4384.182617 2490.021484,4301.758301 2471.189209,4219.350098 
	C2457.841309,4160.940918 2444.413574,4102.550293 2431.033691,4044.148682 
	C2406.358643,3936.444824 2381.664551,3828.745117 2357.047363,3721.028076 
	C2352.264648,3700.100098 2353.247803,3698.909424 2374.196289,3701.411865 
	C2399.411621,3704.424316 2424.721924,3703.434082 2451.998535,3703.872070 
z"/>
<path fill="#020202" opacity="1.000000" stroke="none" 
	d="
M4213.882812,4122.712891 
	C4209.587402,4121.029297 4207.790527,4118.963379 4207.869141,4116.138672 
	C4208.089844,4108.160156 4208.198730,4100.142578 4209.098633,4092.225098 
	C4212.479004,4062.479736 4216.178711,4032.771240 4219.717773,4003.043701 
	C4224.831543,3960.094238 4230.013672,3917.152832 4234.970215,3874.185059 
	C4239.470215,3835.172363 4243.591309,3796.115967 4248.102051,3757.104248 
	C4251.311035,3729.348389 4255.009277,3701.649658 4258.268555,3673.899414 
	C4261.606934,3645.479248 4264.635742,3617.022949 4267.870117,3588.590332 
	C4272.382812,3548.923584 4276.929199,3509.260498 4281.521484,3469.602783 
	C4285.347168,3436.563477 4289.260254,3403.534668 4294.850098,3370.183838 
	C4296.291504,3376.819092 4298.298828,3383.388916 4299.074707,3390.101074 
	C4302.286133,3417.863525 4305.121582,3445.669434 4308.101074,3473.458984 
	C4311.505859,3505.217773 4314.912109,3536.976562 4318.325684,3568.734375 
	C4321.455078,3597.848877 4324.529785,3626.969482 4327.748535,3656.073975 
	C4331.332520,3688.478760 4335.182617,3720.854492 4338.675293,3753.268799 
	C4342.026367,3784.363525 4344.973145,3815.501465 4348.269043,3846.602539 
	C4352.686523,3888.285889 4357.283203,3929.949951 4361.776855,3971.625244 
	C4365.200684,4003.378418 4368.563477,4035.138428 4372.000000,4066.890381 
	C4373.217285,4078.137939 4374.950195,4089.342285 4375.785645,4100.615723 
	C4377.456543,4123.142090 4377.267578,4123.188477 4355.588379,4123.317871 
	C4343.595215,4123.389648 4331.601562,4123.354004 4319.607910,4123.327637 
	C4284.961426,4123.251465 4250.315430,4123.155273 4213.882812,4122.712891 
z"/>
<path fill="#010101" opacity="1.000000" stroke="none" 
	d="
M3208.285400,4072.000000 
	C3208.285645,3995.386230 3208.294434,3920.772461 3208.280762,3846.158691 
	C3208.276367,3822.518311 3207.586914,3823.130615 3231.345703,3823.258545 
	C3253.325195,3823.376709 3275.303955,3823.676270 3297.283447,3823.825195 
	C3305.364990,3823.879883 3313.086670,3825.669434 3320.840576,3827.774902 
	C3332.218018,3830.864014 3339.565186,3838.109863 3342.468750,3849.167969 
	C3344.993896,3858.783447 3346.524170,3868.703125 3347.850098,3878.574707 
	C3348.642578,3884.475830 3348.291260,3890.543945 3348.291748,3896.536865 
	C3348.306885,4143.028809 3348.288330,4389.520508 3348.344727,4636.012207 
	C3348.347900,4649.387207 3347.224121,4662.521973 3344.470947,4675.668457 
	C3340.927490,4692.589355 3331.812744,4703.153809 3314.394775,4705.839355 
	C3308.489502,4706.749512 3302.589355,4708.267090 3296.665283,4708.382812 
	C3271.364258,4708.875488 3246.054443,4709.144043 3220.749023,4709.076172 
	C3210.859375,4709.049805 3208.883301,4706.845703 3208.448975,4697.553711 
	C3208.138184,4690.904785 3208.289551,4684.233398 3208.289307,4677.571777 
	C3208.283936,4476.381348 3208.285156,4275.190430 3208.285400,4072.000000 
z"/>
<path fill="#F8F9F9" opacity="1.000000" stroke="none" 
	d="
M1929.387695,2267.058594 
	C1878.668335,2237.400635 1844.981201,2195.788330 1830.275146,2140.346680 
	C1797.580322,2017.088379 1878.159424,1905.594116 1987.412109,1883.406250 
	C2106.717041,1859.177002 2217.679199,1938.559570 2234.644287,2055.477783 
	C2251.976562,2174.923584 2170.257324,2268.126221 2073.879883,2288.187744 
	C2023.750488,2298.622803 1975.935181,2291.959229 1929.387695,2267.058594 
z"/>
<path fill="#F8F9F9" opacity="1.000000" stroke="none" 
	d="
M2898.439209,2301.787109 
	C2807.705078,2291.738525 2736.263916,2222.672363 2718.633057,2138.865967 
	C2696.365479,2033.021851 2760.703613,1925.555176 2865.026855,1896.588135 
	C2976.403809,1865.662109 3090.538330,1930.382324 3120.978516,2041.898560 
	C3154.528076,2164.806396 3070.065918,2285.115723 2949.944336,2300.969482 
	C2933.320312,2303.163574 2916.831055,2304.073242 2898.439209,2301.787109 
z"/>
<path fill="#010000" opacity="1.000000" stroke="none" 
	d="
M732.306274,3756.000000 
	C732.305603,3797.988770 732.249268,3837.977539 732.327637,3877.966309 
	C732.365540,3897.325928 731.185242,3916.575195 727.951355,3935.676025 
	C726.054199,3946.881836 722.985657,3957.730713 718.523987,3968.220215 
	C712.433167,3982.539795 701.890808,3992.111084 687.687805,3997.871826 
	C673.366882,4003.680176 658.339905,4006.749023 643.021667,4007.852051 
	C607.752258,4010.392334 572.409729,4009.004395 537.096558,4009.175781 
	C535.767029,4009.182129 534.431274,4009.085693 533.107788,4008.947266 
	C527.016907,4008.310791 524.429993,4006.149658 524.057190,4000.524658 
	C523.661133,3994.548584 523.707153,3988.537598 523.706726,3982.541748 
	C523.691895,3770.601074 523.694153,3558.660400 523.695557,3346.719727 
	C523.695618,3342.720947 523.601746,3338.717773 523.746704,3334.723877 
	C524.184692,3322.656006 525.223816,3321.244629 538.104980,3321.292725 
	C574.061157,3321.428467 610.067810,3319.625244 645.945068,3323.566650 
	C660.561646,3325.172363 674.859131,3327.984131 688.551331,3333.652588 
	C704.320557,3340.180908 714.647644,3351.610107 720.446716,3367.452637 
	C726.911377,3385.113770 730.094727,3403.453613 731.276733,3422.122803 
	C732.034119,3434.083496 732.254578,3446.094482 732.263611,3458.083496 
	C732.337646,3556.722412 732.305786,3655.361084 732.306274,3756.000000 
z"/>
<path fill="#3A3637" opacity="1.000000" stroke="none" 
	d="
M2095.144531,1936.184082 
	C2136.287598,1955.374268 2165.307861,1984.493408 2181.486328,2025.446655 
	C2219.351562,2121.296631 2162.246582,2229.709717 2056.623047,2246.863770 
	C1959.578857,2262.624268 1883.413818,2196.868408 1869.364624,2115.385986 
	C1850.424194,2005.536133 1935.207520,1925.837158 2021.551880,1923.027222 
	C2046.548950,1922.213623 2070.691650,1925.524536 2095.144531,1936.184082 
z"/>
<path fill="#3A3738" opacity="1.000000" stroke="none" 
	d="
M2990.981934,1948.315918 
	C3034.787354,1970.534546 3063.819092,2003.662842 3077.702148,2049.388184 
	C3105.985596,2142.545166 3045.373535,2239.207764 2949.781006,2257.007080 
	C2876.635254,2270.626465 2783.486572,2228.254395 2762.015625,2131.649658 
	C2740.294189,2033.920166 2807.592529,1950.120972 2892.254883,1935.344482 
	C2926.220703,1929.416260 2958.377197,1933.856079 2990.981934,1948.315918 
z"/>
<path fill="#FAFAFA" opacity="1.000000" stroke="none" 
	d="
M2093.399902,1992.412354 
	C2116.900635,1999.778687 2131.821533,2013.822876 2137.597168,2036.358032 
	C2143.614258,2059.834473 2136.953613,2080.088623 2119.134521,2095.960693 
	C2100.598877,2112.470947 2078.826172,2116.328369 2055.927490,2106.496582 
	C2034.009521,2097.085693 2021.580933,2079.857422 2019.455444,2055.774658 
	C2016.192871,2018.806519 2047.044678,1989.715210 2079.822266,1991.153198 
	C2083.807129,1991.328003 2087.779541,1991.788574 2093.399902,1992.412354 
z"/>
<path fill="#FAFAFA" opacity="1.000000" stroke="none" 
	d="
M2943.884521,1993.719727 
	C2952.013184,1992.439819 2958.616943,1991.303101 2965.229248,1991.250366 
	C2990.819824,1991.046265 3022.591064,2011.959595 3022.723633,2050.982910 
	C3022.847168,2087.302490 2994.357178,2110.635498 2963.488525,2111.454590 
	C2931.414062,2112.305420 2904.416504,2086.951660 2902.675537,2054.901367 
	C2901.175781,2027.293457 2914.062012,2007.636475 2943.884521,1993.719727 
z"/>
</svg>