<?xml version="1.0" standalone="no"?>
<!DOCTYPE svg PUBLIC "-//W3C//DTD SVG 20010904//EN"
 "http://www.w3.org/TR/2001/REC-SVG-20010904/DTD/svg10.dtd">
<svg version="1.0" xmlns="http://www.w3.org/2000/svg"
 width="1257.000000pt" height="657.000000pt" viewBox="0 0 1257.000000 657.000000"
 preserveAspectRatio="xMidYMid meet">

<g transform="translate(0.000000,657.000000) scale(0.100000,-0.100000)"
fill="#000000" stroke="none">
<path d="M10232 5615 c-83 -168 -155 -305 -159 -305 -5 0 -61 15 -124 34 -363
107 -917 207 -1379 250 -324 30 -906 47 -1013 30 -36 -6 -30 -10 130 -74 617
-247 1182 -581 1693 -999 670 -548 1260 -1272 1639 -2011 63 -123 66 -127 144
-185 44 -33 84 -61 88 -63 6 -3 435 366 597 513 11 10 -111 221 -622 1084
l-635 1071 -102 478 c-55 262 -102 478 -103 479 -1 2 -71 -134 -154 -302z"/>
<path d="M6915 5502 c-85 -6 -449 -54 -591 -78 -266 -44 -728 -146 -747 -164
-4 -4 46 -10 112 -14 67 -3 198 -15 292 -26 1238 -142 2406 -643 3374 -1450
160 -133 412 -367 512 -476 59 -64 119 -116 183 -159 110 -74 286 -213 431
-341 56 -49 111 -96 122 -104 20 -14 20 -13 -2 25 -65 109 -260 396 -354 520
-621 825 -1439 1491 -2365 1924 -363 169 -871 350 -967 343z"/>
<path d="M4990 5001 c-113 -21 -570 -212 -890 -372 -290 -145 -625 -335 -555
-315 79 22 400 90 545 115 409 70 762 96 1210 88 337 -5 533 -20 825 -62 763
-110 1528 -368 2198 -743 70 -40 132 -72 138 -72 5 0 56 16 112 36 56 19 156
50 221 68 l120 33 -75 55 c-300 221 -728 466 -1110 637 -645 287 -1354 465
-2069 521 -185 14 -615 21 -670 11z"/>
<path d="M4710 4259 c-535 -38 -1072 -148 -1590 -324 -125 -43 -178 -66 -220
-97 -131 -98 -396 -315 -530 -434 -154 -136 -543 -515 -536 -522 2 -2 51 23
108 56 1476 850 3255 1074 4923 621 208 -57 466 -144 687 -233 l188 -75 198
94 c109 51 216 101 238 110 l38 16 -44 25 c-106 61 -415 211 -573 278 -644
275 -1309 433 -2032 486 -162 11 -686 11 -855 -1z"/>
<path d="M4775 3489 c-1054 -65 -2071 -391 -2955 -947 -147 -93 -340 -225
-408 -279 -98 -79 -569 -755 -692 -993 -12 -23 -10 -23 21 6 394 361 780 646
1207 891 794 455 1636 722 2585 820 218 22 976 26 1182 5 440 -44 765 -103
1170 -213 l151 -41 99 59 c55 33 169 97 253 143 93 51 147 87 140 91 -33 18
-379 142 -508 182 -727 226 -1508 322 -2245 276z"/>
<path d="M6517 1483 c-4 -3 -7 -33 -7 -65 0 -57 -1 -58 -27 -58 -46 0 -55 -12
-51 -66 3 -48 4 -49 38 -54 l35 -5 5 -155 c6 -175 17 -208 80 -241 40 -21 136
-35 174 -25 24 6 26 11 26 61 l0 55 -39 0 c-22 0 -51 4 -66 10 l-26 10 3 142
3 143 55 5 55 5 3 49 c4 58 -4 66 -70 66 l-48 0 0 49 c0 77 -3 81 -74 81 -35
0 -66 -3 -69 -7z"/>
<path d="M11366 1345 c-53 -19 -102 -69 -115 -118 -8 -27 -11 -111 -9 -232 l3
-190 25 0 25 0 5 205 c4 177 8 210 23 234 22 33 72 56 122 56 39 0 55 21 35
45 -15 19 -62 19 -114 0z"/>
<path d="M7035 1331 c-46 -21 -98 -69 -123 -115 -14 -26 -17 -60 -17 -221 l0
-190 58 -3 c35 -2 64 2 73 9 11 9 14 46 14 175 0 157 1 164 24 191 20 23 34
29 82 33 l59 5 3 68 3 67 -68 0 c-44 0 -82 -7 -108 -19z"/>
<path d="M7350 1331 c-71 -38 -75 -51 -75 -251 0 -199 4 -213 75 -254 50 -29
168 -29 207 0 l29 22 10 -22 c7 -16 19 -22 53 -24 25 -2 55 -1 68 3 l23 5 0
270 0 270 -178 0 c-153 0 -182 -2 -212 -19z m240 -233 c0 -162 -3 -168 -96
-168 -83 0 -87 7 -82 161 2 93 6 122 18 129 8 5 48 10 88 10 l72 0 0 -132z"/>
<path d="M7842 1078 l3 -273 65 0 65 0 6 195 c3 107 6 196 7 197 1 1 9 9 18
17 19 19 124 22 142 4 8 -8 12 -68 12 -203 0 -135 4 -195 12 -203 12 -12 95
-16 122 -6 14 5 16 34 16 213 0 195 -1 209 -22 251 -31 60 -71 80 -166 80 -74
0 -107 -10 -129 -39 -11 -14 -12 -12 -13 12 0 27 0 27 -70 27 l-70 0 2 -272z"/>
<path d="M8439 1327 c-42 -28 -59 -60 -59 -115 0 -80 30 -112 178 -186 76 -38
102 -67 82 -91 -9 -11 -44 -15 -133 -17 l-122 -3 -3 -49 c-2 -32 1 -52 10 -57
18 -12 243 -11 292 1 55 12 89 40 105 86 18 50 8 104 -24 143 -14 16 -70 55
-126 86 -55 31 -103 64 -106 72 -12 31 26 43 129 43 l98 0 0 55 0 55 -144 0
c-132 0 -146 -2 -177 -23z"/>
<path d="M8895 1337 c-3 -6 -4 -165 -3 -352 l3 -340 25 0 c25 0 25 1 28 103
l3 103 30 -22 c19 -13 51 -23 88 -26 138 -13 210 25 231 120 18 80 9 313 -13
355 -31 57 -68 72 -179 72 -89 0 -99 -2 -127 -26 l-31 -26 0 26 c0 21 -5 26
-25 26 -14 0 -28 -6 -30 -13z m320 -62 c25 -24 25 -27 25 -195 0 -168 0 -171
-25 -195 -22 -23 -32 -25 -114 -25 -81 0 -93 2 -118 24 -28 24 -28 25 -31 168
-6 225 8 247 156 248 75 0 85 -2 107 -25z"/>
<path d="M9493 1331 c-56 -35 -67 -70 -71 -221 -5 -170 7 -228 53 -269 40 -35
95 -46 195 -39 82 6 128 30 153 78 15 30 17 58 15 212 l-3 178 -38 37 -37 38
-118 3 c-103 2 -121 0 -149 -17z m258 -60 l29 -29 0 -157 c0 -162 -9 -205 -45
-219 -9 -3 -57 -6 -106 -6 -82 0 -92 2 -114 25 -25 24 -25 27 -25 195 0 168 0
171 25 195 22 23 32 25 115 25 88 0 93 -1 121 -29z"/>
<path d="M9912 1333 c32 -115 154 -511 161 -520 11 -16 49 -17 63 -3 6 6 37
110 70 230 32 121 61 220 64 220 3 0 32 -98 64 -218 32 -119 63 -223 69 -229
5 -7 20 -13 32 -13 12 0 27 6 33 13 9 11 162 510 162 529 0 4 -13 8 -30 8 -24
0 -31 -5 -38 -32 -63 -225 -126 -438 -129 -434 -3 2 -33 107 -67 233 l-62 228
-31 3 c-23 2 -33 -2 -37 -15 -3 -10 -32 -114 -65 -232 -33 -117 -62 -215 -64
-218 -2 -2 -25 72 -51 164 -91 325 -83 303 -118 303 -24 0 -29 -4 -26 -17z"/>
<path d="M10773 1331 c-64 -40 -68 -56 -68 -252 0 -164 2 -180 21 -205 48 -65
61 -69 227 -69 140 0 152 1 155 19 2 10 -2 22 -10 27 -7 5 -74 9 -149 9 -133
0 -136 1 -160 26 -20 22 -24 35 -24 92 l0 67 175 5 175 5 3 80 c4 97 -8 142
-48 180 -31 29 -34 30 -148 33 -103 2 -121 0 -149 -17z m254 -55 c25 -21 28
-31 31 -100 l4 -76 -151 0 -151 0 0 55 c0 63 19 118 47 134 10 6 57 11 105 11
77 0 90 -3 115 -24z"/>
</g>
</svg>
