<?xml version="1.0" standalone="no"?>
<!DOCTYPE svg PUBLIC "-//W3C//DTD SVG 20010904//EN"
 "http://www.w3.org/TR/2001/REC-SVG-20010904/DTD/svg10.dtd">
<svg version="1.0" xmlns="http://www.w3.org/2000/svg"
 width="1237.000000pt" height="167.000000pt" viewBox="0 0 1237.000000 167.000000"
 preserveAspectRatio="xMidYMid meet">

<g transform="translate(0.000000,167.000000) scale(0.100000,-0.100000)"
fill="#000000" stroke="none">
<path d="M4447 1618 c-13 -10 -17 -34 -19 -113 l-3 -100 -50 -3 c-64 -4 -75
-18 -75 -103 0 -84 12 -99 80 -99 l48 0 4 -252 c4 -290 9 -310 86 -378 61 -55
124 -72 248 -68 l99 3 3 83 c2 53 -1 89 -9 98 -8 10 -33 14 -81 14 -60 0 -72
3 -93 25 l-25 24 0 226 0 225 83 0 c45 0 89 4 96 9 19 12 27 125 12 163 -10
26 -13 27 -98 30 l-88 3 -3 100 c-3 123 -5 125 -117 125 -49 0 -88 -5 -98 -12z"/>
<path d="M5332 1384 c-75 -20 -109 -40 -173 -101 -66 -62 -106 -142 -120 -236
-12 -88 -11 -524 1 -548 10 -17 22 -19 110 -19 68 0 101 4 107 13 4 6 10 138
13 292 5 273 6 281 28 313 34 47 76 65 167 71 l80 6 3 99 c2 64 -1 103 -9 112
-15 18 -136 18 -207 -2z"/>
<path d="M5816 1380 c-65 -21 -116 -63 -149 -125 -21 -38 -22 -52 -22 -315 0
-307 0 -306 73 -383 45 -46 135 -77 226 -77 86 0 135 16 178 60 l38 38 0 -43
c0 -30 5 -45 16 -49 29 -11 189 -7 202 6 17 17 17 879 0 896 -9 9 -79 12 -257
11 -212 0 -254 -3 -305 -19z m339 -400 c0 -185 -2 -219 -17 -247 -23 -42 -71
-57 -161 -50 -108 7 -107 5 -107 252 0 112 3 211 6 220 13 32 63 45 174 42
l105 -2 0 -215z"/>
<path d="M6560 1390 c-13 -8 -15 -69 -15 -450 0 -381 2 -442 15 -450 8 -5 56
-10 107 -10 81 0 94 2 103 19 6 12 10 133 10 324 0 290 1 306 20 330 28 35 80
50 156 45 50 -3 70 -9 87 -26 22 -22 22 -27 25 -349 2 -241 6 -329 15 -335 20
-13 192 -9 205 4 15 15 17 619 2 699 -25 132 -110 198 -267 206 -109 6 -166
-8 -210 -52 -33 -33 -33 -33 -33 -8 0 56 -13 63 -113 63 -51 0 -99 -5 -107
-10z"/>
<path d="M7572 1385 c-70 -19 -98 -39 -128 -91 -32 -55 -42 -144 -23 -211 19
-70 80 -123 244 -214 149 -82 182 -111 171 -152 -9 -39 -51 -47 -242 -47
l-174 0 0 -89 c0 -72 3 -90 16 -95 9 -3 104 -6 213 -6 218 0 290 12 349 57 63
48 92 150 72 248 -11 51 -19 66 -64 108 -28 26 -114 85 -191 130 -146 86 -181
120 -159 154 10 16 34 19 185 24 96 3 175 6 177 7 1 1 2 42 2 91 0 72 -3 90
-16 95 -33 13 -378 5 -432 -9z"/>
<path d="M8237 1393 c-4 -3 -7 -269 -7 -589 l0 -584 24 -6 c61 -15 61 -15 64
180 l2 178 40 -35 c50 -46 92 -57 216 -57 133 0 189 17 241 73 65 70 68 88 68
387 0 307 -5 332 -81 399 -55 48 -104 61 -232 61 -116 0 -171 -16 -219 -62
l-33 -32 0 47 0 47 -38 0 c-21 0 -42 -3 -45 -7z m484 -106 c65 -43 69 -62 69
-347 0 -286 -4 -304 -70 -348 -33 -22 -42 -23 -167 -20 -147 3 -168 12 -208
79 -18 30 -20 56 -23 244 -4 242 1 302 31 347 38 56 75 68 213 68 109 0 124
-2 155 -23z"/>
<path d="M9237 1384 c-61 -19 -119 -76 -141 -139 -13 -40 -16 -93 -16 -305 0
-292 6 -326 71 -391 53 -53 114 -69 259 -69 145 0 203 16 258 69 65 63 72 102
72 391 0 194 -3 258 -16 299 -20 68 -78 125 -147 146 -67 20 -274 19 -340 -1z
m333 -93 c19 -10 44 -34 55 -52 19 -32 20 -52 20 -299 0 -296 -2 -308 -68
-349 -30 -19 -50 -21 -168 -21 -115 0 -138 3 -166 20 -65 39 -68 55 -68 350 0
295 3 311 68 350 27 17 51 20 162 20 108 0 136 -3 165 -19z"/>
<path d="M9856 1392 c-6 -11 242 -881 257 -899 12 -17 92 -17 105 0 5 6 54
182 108 389 53 208 99 376 101 374 2 -2 49 -173 103 -381 55 -207 102 -381
105 -386 4 -5 29 -9 56 -9 42 0 51 3 59 23 16 37 250 859 250 879 0 14 -8 18
-39 18 -21 0 -43 -6 -48 -12 -6 -7 -56 -184 -113 -393 -56 -209 -106 -383
-109 -387 -4 -4 -51 162 -105 370 -55 207 -103 387 -107 400 -7 18 -16 22 -48
22 -28 0 -43 -5 -50 -17 -5 -10 -52 -182 -105 -383 -91 -345 -113 -419 -116
-395 -1 6 -49 186 -108 400 l-107 390 -42 3 c-22 2 -44 -1 -47 -6z"/>
<path d="M11283 1386 c-59 -19 -99 -50 -130 -104 l-28 -47 0 -295 c0 -288 1
-296 23 -338 29 -54 89 -98 155 -112 32 -7 131 -10 257 -8 l205 3 3 28 c7 55
-1 57 -237 57 -197 0 -219 2 -248 20 -52 31 -67 71 -71 192 l-4 108 283 2 284
3 3 144 c3 178 -9 230 -69 290 -57 56 -112 71 -263 70 -69 0 -139 -6 -163 -13z
m334 -96 c54 -32 66 -70 67 -200 l1 -115 -239 -3 -238 -2 4 117 c4 133 18 171
71 203 28 17 51 20 167 20 116 0 139 -3 167 -20z"/>
<path d="M12179 1386 c-59 -21 -106 -54 -138 -98 -59 -80 -62 -100 -59 -468
l3 -335 36 -3 c21 -2 40 2 47 11 8 9 12 120 14 354 l3 341 31 39 c46 56 83 74
169 80 70 6 76 8 82 31 11 44 -7 57 -83 59 -38 2 -85 -3 -105 -11z"/>
</g>
</svg>
