<?xml version="1.0" standalone="no"?>
<!DOCTYPE svg PUBLIC "-//W3C//DTD SVG 20010904//EN"
 "http://www.w3.org/TR/2001/REC-SVG-20010904/DTD/svg10.dtd">
<svg version="1.0" xmlns="http://www.w3.org/2000/svg"
 width="1590.000000pt" height="294.000000pt" viewBox="0 0 1590.000000 294.000000"
 preserveAspectRatio="xMidYMid meet">

<g transform="translate(0.000000,294.000000) scale(0.100000,-0.100000)"
fill="#000000" stroke="none">
<path d="M7970 2931 c-110 -34 -167 -116 -158 -227 9 -109 109 -191 222 -182
138 11 218 122 192 263 -19 97 -157 176 -256 146z m148 -58 c49 -36 72 -81 72
-140 0 -110 -52 -165 -160 -171 -55 -3 -70 0 -99 20 -60 41 -76 71 -76 147 0
58 4 73 27 103 15 19 42 42 60 52 45 23 138 17 176 -11z"/>
<path d="M7940 2730 l0 -100 30 0 c28 0 30 3 30 35 0 19 4 35 9 35 5 0 18 -16
30 -35 16 -28 27 -35 50 -35 l30 0 -21 36 c-20 34 -20 37 -5 64 22 37 21 56
-3 80 -16 16 -33 20 -85 20 l-65 0 0 -100z m105 35 c0 -13 -8 -21 -22 -23 -19
-3 -23 1 -23 23 0 22 4 26 23 23 14 -2 22 -10 22 -23z"/>
<path d="M8784 2871 c-133 -22 -241 -76 -315 -159 -84 -94 -116 -203 -126
-414 l-6 -148 -99 0 -98 0 0 -155 0 -155 100 0 100 0 2 -627 3 -628 218 -3
217 -2 0 630 0 630 170 0 170 0 0 155 0 155 -171 0 -171 0 4 133 c3 148 17
190 72 230 24 17 48 23 112 25 44 2 97 -1 117 -6 l37 -10 0 163 0 164 -37 11
c-50 14 -235 21 -299 11z"/>
<path d="M9427 2829 c-113 -27 -187 -118 -187 -227 0 -94 39 -163 118 -209 41
-24 57 -28 127 -28 63 0 89 5 121 22 173 92 166 345 -11 424 -52 23 -120 30
-168 18z"/>
<path d="M12217 2826 c-180 -50 -235 -275 -97 -399 101 -91 239 -91 340 0 190
171 8 469 -243 399z"/>
<path d="M493 2740 c-174 -9 -356 -30 -425 -50 -37 -11 -38 -12 -38 -60 l0
-49 33 10 c146 44 477 63 974 56 412 -5 562 -17 676 -51 l48 -14 -3 51 -3 52
-66 16 c-36 10 -119 22 -185 28 -157 15 -793 22 -1011 11z"/>
<path d="M2170 1671 l0 -1071 459 0 c476 0 608 7 737 40 280 72 434 272 434
565 0 159 -43 279 -131 367 -52 52 -155 107 -239 129 l-50 13 78 36 c171 81
248 199 259 400 16 291 -124 481 -416 563 -72 20 -102 21 -603 25 l-528 3 0
-1070z m955 704 c32 -16 72 -46 88 -66 61 -77 61 -257 0 -343 -57 -82 -151
-106 -410 -106 l-163 0 0 276 0 276 213 -4 212 -3 60 -30z m15 -849 c71 -27
115 -63 146 -119 27 -48 29 -59 29 -162 0 -104 -2 -113 -31 -165 -36 -64 -105
-112 -186 -129 -27 -6 -141 -11 -253 -11 l-205 0 0 306 0 306 228 -4 c184 -3
235 -7 272 -22z"/>
<path d="M3950 1670 l0 -1070 240 0 240 0 0 415 0 415 355 0 355 0 -2 183 -3
182 -352 3 -353 2 0 280 0 280 445 0 445 0 0 190 0 190 -685 0 -685 0 0 -1070z"/>
<path d="M5470 1670 l0 -1070 215 0 215 0 0 747 c0 410 3 743 7 740 3 -4 138
-339 299 -744 l292 -738 79 -3 79 -3 295 747 294 747 3 -746 2 -747 240 0 240
0 0 1070 0 1070 -314 0 -314 0 -10 -27 c-43 -121 -474 -1278 -479 -1286 -3 -5
-117 287 -253 649 l-247 659 -321 3 -322 2 0 -1070z"/>
<path d="M405 2539 c-148 -10 -268 -25 -326 -42 -44 -13 -44 -13 -47 -61 -3
-47 -2 -48 20 -42 57 16 195 36 328 48 193 17 900 17 1075 0 118 -12 254 -34
291 -49 11 -4 14 5 14 41 0 44 -2 48 -32 60 -47 19 -152 35 -313 46 -163 11
-835 11 -1010 -1z"/>
<path d="M10060 2320 l0 -170 -105 0 -105 0 0 -155 0 -155 105 0 105 0 0 -453
c0 -408 2 -459 18 -518 43 -154 136 -246 297 -295 84 -26 283 -26 383 0 l72
18 0 170 c0 144 -2 169 -14 165 -8 -3 -43 -11 -77 -17 -116 -21 -195 8 -229
83 -18 39 -20 69 -20 445 l0 402 165 0 165 0 0 155 0 155 -165 0 -165 0 0 170
0 170 -215 0 -215 0 0 -170z"/>
<path d="M11170 2320 l0 -170 -105 0 -105 0 0 -155 0 -155 105 0 105 0 0 -445
c0 -476 3 -509 51 -611 48 -101 135 -171 264 -210 84 -26 283 -26 383 0 l72
18 0 170 c0 144 -2 169 -14 165 -8 -3 -43 -11 -77 -17 -116 -21 -195 8 -229
83 -18 39 -20 69 -20 445 l0 402 165 0 165 0 0 155 0 155 -165 0 -165 0 0 170
0 170 -215 0 -215 0 0 -170z"/>
<path d="M470 2404 c-163 -10 -407 -40 -398 -49 9 -9 360 -36 593 -46 357 -16
784 0 988 35 l72 13 -55 11 c-110 24 -284 32 -705 36 -236 2 -459 2 -495 0z"/>
<path d="M1347 2240 c-13 -43 -32 -71 -85 -126 -92 -97 -134 -182 -139 -284
l-3 -75 23 50 c13 28 50 82 82 120 83 101 152 266 143 343 -3 23 -6 18 -21
-28z"/>
<path d="M1768 2233 c-6 -84 -37 -127 -151 -212 -173 -128 -227 -206 -235
-332 -4 -68 -1 -84 22 -135 32 -71 100 -142 219 -231 100 -75 132 -123 144
-220 l7 -58 9 40 c11 51 1 128 -24 185 -11 25 -50 77 -88 115 -37 39 -78 84
-89 101 -29 43 -52 135 -52 209 0 84 31 144 129 251 45 49 90 107 101 130 24
48 36 158 22 194 -8 21 -10 16 -14 -37z"/>
<path d="M3 2197 c7 -102 30 -146 127 -252 100 -108 130 -166 130 -250 0 -74
-23 -166 -52 -209 -11 -17 -52 -62 -89 -101 -96 -98 -132 -194 -113 -297 l8
-43 8 59 c13 100 39 138 147 220 177 135 241 225 241 343 0 129 -65 226 -236
353 -105 78 -144 128 -152 195 -2 25 -9 48 -15 52 -7 4 -8 -19 -4 -70z"/>
<path d="M13475 2176 c-157 -31 -282 -111 -367 -236 -16 -24 -17 -21 -17 93
l-1 117 -220 0 -220 0 2 -782 3 -783 217 -3 217 -2 3 502 c3 494 3 504 25 558
29 70 82 126 153 159 47 22 68 26 150 26 136 -1 193 -34 242 -140 23 -50 23
-51 26 -577 l3 -528 220 0 220 0 -3 573 c-4 547 -5 575 -25 649 -12 42 -34
100 -48 129 -33 64 -114 152 -173 186 -102 60 -274 85 -407 59z"/>
<path d="M14864 2181 c-278 -44 -486 -242 -565 -536 -31 -115 -32 -354 -1
-470 37 -138 94 -239 186 -330 48 -48 105 -93 141 -112 257 -134 545 -101 734
86 37 36 75 77 85 91 16 24 16 18 12 -140 -4 -184 -17 -240 -66 -309 -37 -51
-106 -96 -179 -117 -82 -24 -269 -16 -339 15 -62 28 -123 92 -142 150 l-13 41
-218 0 -217 0 14 -59 c56 -240 203 -386 458 -451 296 -75 661 -31 866 105 117
78 187 172 238 320 l27 80 3 803 3 802 -216 0 -215 0 -1 -112 c0 -109 -1 -112
-17 -88 -34 50 -105 120 -153 151 -102 65 -292 101 -425 80z m397 -363 c134
-61 209 -206 209 -403 0 -189 -82 -336 -223 -401 -54 -25 -74 -29 -157 -29
-82 0 -103 4 -151 26 -78 37 -133 90 -169 163 -40 82 -53 160 -47 281 10 200
89 323 240 377 78 28 222 21 298 -14z"/>
<path d="M9270 1365 l0 -785 218 2 217 3 3 783 2 782 -220 0 -220 0 0 -785z"/>
<path d="M12072 1368 l3 -783 218 -3 217 -2 0 785 0 785 -220 0 -220 0 2 -782z"/>
<path d="M660 1580 c0 -35 -41 -110 -75 -136 -42 -32 -109 -127 -135 -193 -13
-33 -20 -74 -19 -114 l0 -62 23 50 c13 28 51 84 85 125 73 89 121 197 129 288
2 34 2 62 -2 62 -3 0 -6 -9 -6 -20z"/>
<path d="M405 1033 c-90 -5 -296 -32 -312 -42 -17 -9 153 -26 416 -42 378 -23
1157 3 1194 40 12 12 -120 29 -318 41 -154 9 -833 11 -980 3z"/>
<path d="M1690 944 c-146 -36 -344 -48 -810 -49 -460 0 -629 9 -768 41 -35 8
-67 14 -73 14 -5 0 -9 -20 -9 -44 0 -41 2 -45 32 -55 112 -35 356 -51 793 -51
362 0 613 12 761 35 138 22 144 26 144 80 0 25 -3 45 -7 44 -5 -1 -33 -7 -63
-15z"/>
<path d="M30 716 c0 -56 9 -62 132 -81 317 -49 1275 -39 1523 16 66 15 75 24
75 71 0 37 -2 40 -23 34 -54 -13 -223 -36 -352 -47 -186 -16 -860 -16 -1035 0
-136 13 -270 33 -302 46 -16 6 -18 1 -18 -39z"/>
</g>
</svg>
