<?xml version="1.0" standalone="no"?>
<!DOCTYPE svg PUBLIC "-//W3C//DTD SVG 20010904//EN"
 "http://www.w3.org/TR/2001/REC-SVG-20010904/DTD/svg10.dtd">
<svg version="1.0" xmlns="http://www.w3.org/2000/svg"
 width="1417.000000pt" height="191.000000pt" viewBox="0 0 1417.000000 191.000000"
 preserveAspectRatio="xMidYMid meet">

<g transform="translate(0.000000,191.000000) scale(0.100000,-0.100000)"
fill="#000000" stroke="none">
<path d="M3865 1780 c-33 -66 -63 -120 -67 -120 -4 0 -61 13 -127 29 -256 63
-487 91 -740 91 l-166 -1 75 -30 c282 -112 566 -294 813 -520 177 -163 387
-435 511 -662 28 -51 62 -98 82 -113 l33 -26 121 107 c67 59 119 113 117 119
-3 7 -118 203 -257 436 l-251 425 -41 190 c-22 104 -41 191 -42 192 -1 1 -29
-52 -61 -117z"/>
<path d="M5083 1848 c-4 -7 -10 -65 -13 -128 l-5 -115 -65 -5 -65 -5 0 -105 0
-105 68 -3 67 -3 0 -237 c0 -277 9 -357 49 -426 31 -55 98 -108 159 -126 20
-6 89 -14 152 -17 148 -7 150 -6 150 112 0 109 -6 115 -111 115 -71 0 -83 3
-104 24 -33 33 -36 61 -33 321 l3 230 100 3 c121 3 125 7 125 106 0 120 3 116
-109 116 -53 0 -101 4 -108 8 -8 5 -13 47 -15 127 l-3 120 -117 3 c-86 2 -119
-1 -125 -10z"/>
<path d="M2415 1723 c-129 -17 -420 -74 -431 -85 -2 -2 54 -9 124 -16 404 -39
820 -188 1162 -417 156 -104 234 -167 379 -303 63 -59 149 -134 192 -167 43
-33 101 -80 130 -105 59 -50 59 -50 -24 75 -301 455 -779 821 -1298 995 -87
29 -145 35 -234 23z"/>
<path d="M6101 1584 c-124 -33 -236 -129 -294 -251 l-32 -68 -3 -349 c-2 -278
0 -351 10 -357 21 -14 222 -11 236 3 9 9 12 94 12 320 0 331 1 339 54 396 37
42 77 56 171 62 l90 5 3 119 c2 89 -1 121 -10 128 -21 13 -179 8 -237 -8z"/>
<path d="M6679 1586 c-105 -28 -183 -101 -209 -196 -5 -19 -10 -162 -10 -317
0 -257 2 -287 20 -335 21 -57 82 -124 136 -151 78 -40 256 -46 335 -13 20 8
50 31 68 51 l31 36 0 -44 c0 -23 5 -48 12 -55 16 -16 220 -16 236 0 9 9 12
138 12 519 0 453 -2 508 -16 513 -31 12 -567 5 -615 -8z m371 -456 c0 -256 -4
-285 -50 -325 -19 -17 -36 -20 -127 -20 -102 0 -105 1 -129 28 -24 28 -24 29
-24 257 0 240 5 269 44 288 11 6 81 11 154 11 l132 1 0 -240z"/>
<path d="M7513 1593 c-18 -7 -19 -1013 -1 -1031 16 -16 220 -16 236 0 9 9 12
102 12 355 0 366 2 386 50 428 18 16 39 21 112 24 100 3 140 -8 157 -45 7 -17
11 -138 11 -384 0 -313 2 -361 16 -374 23 -24 216 -23 239 1 15 15 16 53 12
407 -3 261 -8 403 -16 428 -23 71 -72 130 -135 163 -57 29 -65 30 -190 30
-149 0 -192 -14 -233 -75 l-23 -33 0 45 c0 24 -5 49 -12 56 -12 12 -208 16
-235 5z"/>
<path d="M8673 1586 c-125 -31 -183 -115 -183 -265 0 -89 32 -156 97 -208 27
-21 112 -72 188 -113 202 -110 243 -158 179 -209 -25 -20 -39 -21 -235 -21
-243 0 -229 7 -229 -114 0 -110 -10 -106 248 -106 293 0 365 13 435 79 54 50
71 97 71 196 0 153 -27 186 -291 343 -169 100 -193 120 -193 161 0 44 32 51
225 51 127 0 185 4 193 12 7 7 12 44 12 98 0 54 -5 91 -12 98 -17 17 -434 15
-505 -2z"/>
<path d="M9430 925 l0 -675 50 0 50 0 0 208 0 207 26 -33 c14 -18 45 -43 67
-55 38 -20 56 -22 197 -22 136 0 160 3 200 21 89 41 134 107 152 221 13 85 5
575 -11 624 -19 60 -67 116 -123 146 -48 25 -65 28 -183 31 -168 5 -223 -7
-281 -60 l-44 -41 0 52 0 51 -50 0 -50 0 0 -675z m516 570 c56 -16 86 -43 109
-97 12 -31 15 -88 15 -326 0 -283 0 -290 -23 -333 -15 -27 -39 -53 -63 -67
-36 -21 -49 -22 -185 -20 -139 3 -147 4 -186 30 -74 49 -78 66 -81 375 -2 168
1 287 8 311 18 69 68 114 145 133 54 13 209 10 261 -6z"/>
<path d="M10580 1585 c-60 -19 -122 -73 -151 -132 -24 -48 -24 -51 -24 -378
l0 -330 31 -55 c38 -68 102 -114 181 -131 81 -16 326 -7 375 15 56 24 109 75
134 131 23 49 24 56 24 370 0 314 -1 321 -24 370 -30 66 -91 120 -157 139 -69
21 -323 21 -389 1z m336 -86 c59 -15 109 -62 124 -117 7 -30 10 -135 8 -330
-3 -279 -4 -288 -26 -324 -39 -63 -86 -78 -245 -78 -154 0 -187 9 -229 58 -40
47 -48 111 -48 367 0 131 5 256 11 285 16 75 62 123 134 141 48 11 222 10 271
-2z"/>
<path d="M11290 1580 c0 -27 280 -1001 293 -1017 5 -8 32 -13 63 -13 47 0 56
3 64 23 5 12 57 206 115 432 115 445 113 440 120 434 2 -3 54 -196 116 -429
61 -234 115 -433 120 -442 8 -14 22 -18 63 -18 31 0 58 5 63 13 11 14 293 998
293 1022 0 13 -10 15 -52 13 l-52 -3 -125 -458 c-69 -251 -128 -452 -132 -445
-4 7 -57 207 -119 443 -62 237 -116 438 -121 448 -7 12 -22 17 -54 17 -32 0
-47 -5 -54 -17 -5 -10 -62 -218 -127 -462 -82 -310 -120 -438 -126 -425 -4 10
-55 195 -113 409 -58 215 -112 414 -121 443 l-15 52 -49 0 c-44 0 -50 -3 -50
-20z"/>
<path d="M12912 1581 c-60 -21 -113 -67 -145 -126 -21 -38 -22 -54 -25 -358
-3 -357 0 -381 63 -454 19 -22 56 -51 82 -64 47 -23 55 -24 318 -24 l270 0 3
39 c2 24 -2 42 -10 47 -7 5 -121 9 -252 9 -278 0 -303 6 -347 83 -22 38 -24
53 -24 162 l0 120 320 5 320 5 3 169 c3 212 -7 256 -77 326 -68 68 -115 80
-300 80 -115 -1 -157 -5 -199 -19z m345 -82 c59 -15 107 -63 122 -122 6 -25
11 -95 11 -155 0 -91 -3 -111 -16 -116 -20 -8 -498 -8 -518 0 -13 5 -16 25
-16 116 0 60 5 130 11 155 15 56 63 107 116 121 53 14 235 14 290 1z"/>
<path d="M13960 1591 c-85 -26 -163 -94 -202 -176 l-28 -60 0 -403 0 -403 48
3 47 3 5 390 c5 380 6 391 27 432 43 80 123 122 236 123 l67 0 0 50 0 50 -87
-1 c-49 0 -99 -4 -113 -8z"/>
<path d="M1665 1509 c-184 -75 -525 -243 -513 -254 2 -2 50 8 107 21 227 51
516 73 736 55 372 -30 666 -111 992 -272 l162 -80 92 29 91 28 -116 76 c-206
136 -460 254 -677 316 -237 68 -390 92 -634 97 -174 4 -194 3 -240 -16z"/>
<path d="M1478 1215 c-189 -27 -322 -58 -531 -126 -52 -17 -227 -159 -372
-302 l-120 -118 75 41 c686 374 1472 431 2192 161 l132 -49 95 45 96 45 -135
67 c-228 111 -432 177 -694 223 -156 27 -587 35 -738 13z"/>
<path d="M1540 909 c-153 -15 -384 -66 -545 -120 -272 -90 -661 -304 -748
-411 -44 -55 -153 -213 -206 -301 l-42 -68 96 80 c412 349 858 547 1385 617
151 20 462 22 605 5 127 -16 331 -55 413 -80 l63 -20 106 59 c121 68 125 53
-28 110 -99 37 -336 95 -469 115 -127 20 -495 28 -630 14z"/>
</g>
</svg>
